<svg xmlns="http://www.w3.org/2000/svg" width="1025.177" height="662.706" viewBox="0 0 1025.177 662.706"><g transform="translate(2224.177 -136.823)"><rect width="1025" height="662" transform="translate(-2224 137)" fill="#fff"/><g transform="translate(-649)"><rect width="1024.213" height="662.352" transform="translate(-1575 137)" fill="none" stroke="#bbbdbf" stroke-miterlimit="10" stroke-width="0.354"/><path d="M571.046,4905c-44.065,13.142-140.586,48.154-125.97,99.314l-35.1,3.406c-2.169-3.29.684-6.313.684-6.313,6.063-28.925,42.459-55.055,42.459-55.055l15.866-11.2c39.637-24.264,81.783-42.268,101.5-50.169Z" transform="translate(-1567.076 -4586.474)" fill="#e04403"/><path d="M445.54,4916.37a14.188,14.188,0,1,0-13.233-13.236,14.189,14.189,0,0,0,13.233,13.236" transform="translate(-1534.099 -4582.138)" fill="#270089"/><path d="M409.2,4907.685c61.8-2.345,76.379,86.773,76.379,86.773-.468-40.128-9.577-55.908-19.132-71.856-21.636-36.1-58.791-37.325-58.791-37.325l1.543,9.075v9.566" transform="translate(-1569.214 -4586.058)" fill="#270089"/><path d="M421.72,4957.368a5.572,5.572,0,0,1-.869-.065,2.764,2.764,0,0,1-.776-.233,2.032,2.032,0,0,1-.628-.461,1.951,1.951,0,0,1-.422-.757q-.32.073-.655.123a5.214,5.214,0,0,1-.674.044,4.957,4.957,0,0,1-1.087-.138,3.5,3.5,0,0,1-1.17-.516,3.1,3.1,0,0,1-.937-1.04,3.385,3.385,0,0,1-.383-1.713,3.8,3.8,0,0,1,.364-1.743,3.47,3.47,0,0,1,.939-1.162,3.646,3.646,0,0,1,1.271-.645,4.99,4.99,0,0,1,1.378-.2h3.183v5.6a1.091,1.091,0,0,0,.112.589c.075.106.247.157.524.157h.449a1.505,1.505,0,0,1,.281.029.457.457,0,0,1,.233.134.644.644,0,0,1,.16.309,2.243,2.243,0,0,1,.056.561,1.558,1.558,0,0,1-.177.878.637.637,0,0,1-.553.245Zm-6.347-11.63a1.324,1.324,0,1,1,1.33,1.329,1.343,1.343,0,0,1-1.33-1.329m1.123,6.753a2.092,2.092,0,0,0,.058.473,1.068,1.068,0,0,0,.2.447,1.139,1.139,0,0,0,.4.324,1.4,1.4,0,0,0,.645.132c.165,0,.33,0,.5-.018a2.034,2.034,0,0,0,.514-.114v-2.567h-.937a1.368,1.368,0,0,0-1.039.365,1.316,1.316,0,0,0-.347.958m1.929-6.753a1.326,1.326,0,1,1,1.33,1.329,1.343,1.343,0,0,1-1.33-1.329" transform="translate(-1560.001 -4501.713)" fill="#e04403"/><path d="M417.935,4951.017a1.115,1.115,0,0,1-.279-.03.454.454,0,0,1-.235-.128.7.7,0,0,1-.16-.308,2.3,2.3,0,0,1-.056-.562,1.594,1.594,0,0,1,.177-.882.642.642,0,0,1,.553-.245h2.773a1.478,1.478,0,0,1,.279.029.458.458,0,0,1,.233.134.644.644,0,0,1,.16.309,2.135,2.135,0,0,1,.056.561,1.558,1.558,0,0,1-.177.878.635.635,0,0,1-.551.245Z" transform="translate(-1555.597 -4495.362)" fill="#e04403"/><path d="M419.078,4951.017a1.147,1.147,0,0,1-.281-.03.473.473,0,0,1-.235-.128.723.723,0,0,1-.158-.308,2.293,2.293,0,0,1-.056-.562,1.594,1.594,0,0,1,.177-.882.639.639,0,0,1,.553-.245h2.773a1.479,1.479,0,0,1,.279.029.457.457,0,0,1,.233.134.645.645,0,0,1,.16.309,2.138,2.138,0,0,1,.056.561,1.558,1.558,0,0,1-.177.878.635.635,0,0,1-.551.245Z" transform="translate(-1553.967 -4495.362)" fill="#e04403"/><path d="M421.943,4954.664a2.5,2.5,0,0,1-.216-.76,5.689,5.689,0,0,1-.066-.851,4.29,4.29,0,0,1,.252-1.441,3.915,3.915,0,0,1,.733-1.265,3.635,3.635,0,0,1,1.191-.891,3.772,3.772,0,0,1,1.633-.337,3.6,3.6,0,0,1,1.766.386,3.057,3.057,0,0,1,1.089.974,3.829,3.829,0,0,1,.553,1.309,6.445,6.445,0,0,1,.16,1.4v3.635h-8.728a1.387,1.387,0,0,1-.279-.027.485.485,0,0,1-.235-.133.654.654,0,0,1-.158-.309,2.157,2.157,0,0,1-.058-.562,1.608,1.608,0,0,1,.177-.881.645.645,0,0,1,.553-.243Zm.374-8.541a1.288,1.288,0,0,1,.391-.936,1.3,1.3,0,0,1,.939-.394,1.328,1.328,0,1,1-1.33,1.329m1.7,6.818a1.684,1.684,0,0,0,.451,1.35,1.622,1.622,0,0,0,1.085.373h1.051v-1.424a5.278,5.278,0,0,0-.048-.719,1.71,1.71,0,0,0-.187-.606,1.128,1.128,0,0,0-.383-.424,1.106,1.106,0,0,0-.619-.159,1.317,1.317,0,0,0-.645.139,1.255,1.255,0,0,0-.415.364,1.463,1.463,0,0,0-.221.516,2.559,2.559,0,0,0-.068.591m1.349-6.818a1.338,1.338,0,1,1,.393.939,1.29,1.29,0,0,1-.393-.939" transform="translate(-1552.207 -4501.165)" fill="#e04403"/><path d="M426.232,4947.016h2.436v5.583a10.75,10.75,0,0,1-.206,2.283,3.408,3.408,0,0,1-.721,1.527,2.941,2.941,0,0,1-1.424.854,9.059,9.059,0,0,1-2.312.278v-2.285a4.163,4.163,0,0,0,1.208-.167,1.287,1.287,0,0,0,.665-.479,1.92,1.92,0,0,0,.291-.822,9.8,9.8,0,0,0,.063-1.189Z" transform="translate(-1545.898 -4497.992)" fill="#e04403"/><path d="M431.271,4956.488a1.558,1.558,0,0,1-.177.878.637.637,0,0,1-.553.245h-.786a4.527,4.527,0,0,1-1.17-.142,2.222,2.222,0,0,1-.917-.468,2.122,2.122,0,0,1-.6-.868,3.65,3.65,0,0,1-.216-1.35v-10.546h2.434v10.208c0,.438.078.717.233.833a1.1,1.1,0,0,0,.667.177h.354a1.505,1.505,0,0,1,.281.029.458.458,0,0,1,.233.134.692.692,0,0,1,.163.309,2.39,2.39,0,0,1,.053.561" transform="translate(-1541.836 -4501.955)" fill="#e04403"/><path d="M428.794,4951.017a1.115,1.115,0,0,1-.279-.03.454.454,0,0,1-.235-.128.674.674,0,0,1-.158-.308,2.166,2.166,0,0,1-.058-.562,1.594,1.594,0,0,1,.177-.882.642.642,0,0,1,.553-.245h2.773a1.456,1.456,0,0,1,.279.029.457.457,0,0,1,.233.134.645.645,0,0,1,.16.309,2.135,2.135,0,0,1,.056.561,1.558,1.558,0,0,1-.177.878.635.635,0,0,1-.551.245Z" transform="translate(-1540.109 -4495.362)" fill="#e04403"/><path d="M429.937,4951.017a1.113,1.113,0,0,1-.279-.03.454.454,0,0,1-.235-.128.7.7,0,0,1-.16-.308,2.29,2.29,0,0,1-.056-.562,1.594,1.594,0,0,1,.177-.882.642.642,0,0,1,.553-.245h2.773a1.478,1.478,0,0,1,.279.029.457.457,0,0,1,.233.134.644.644,0,0,1,.16.309,2.136,2.136,0,0,1,.056.561,1.558,1.558,0,0,1-.177.878.635.635,0,0,1-.551.245Z" transform="translate(-1538.478 -4495.362)" fill="#e04403"/><path d="M431.737,4956.26c.274,0,.5,0,.682-.02a1.072,1.072,0,0,0,.439-.111.53.53,0,0,0,.245-.272,1.3,1.3,0,0,0,.073-.5v-3.577h2.436v3.184a1.32,1.32,0,0,0,.325.947,1.3,1.3,0,0,0,.995.346,2.293,2.293,0,0,0,.939-.17.712.712,0,0,0,.383-.729v-3.577h2.436v3.184a1.435,1.435,0,0,0,.284.976,1.241,1.241,0,0,0,.961.317,1.7,1.7,0,0,0,.832-.179c.209-.116.318-.377.318-.774v-4.345h2.431v4a1.432,1.432,0,0,0,.281.994,1.711,1.711,0,0,0,1.2.3,1.469,1.469,0,0,1,.281.027.458.458,0,0,1,.23.134.644.644,0,0,1,.165.308,2.426,2.426,0,0,1,.053.561,1.591,1.591,0,0,1-.177.881.645.645,0,0,1-.553.245,3,3,0,0,1-1.068-.2,1.649,1.649,0,0,1-.859-.8,2.34,2.34,0,0,1-1.187.825,5.086,5.086,0,0,1-1.33.17,4.057,4.057,0,0,1-1.213-.219,1.268,1.268,0,0,0-2.341.049,4.572,4.572,0,0,1-1.286.17,3.246,3.246,0,0,1-2.642-.976,2.143,2.143,0,0,1-1.313.815,10.76,10.76,0,0,1-2.062.16h-.619a1.431,1.431,0,0,1-.281-.027.519.519,0,0,1-.235-.133.7.7,0,0,1-.158-.309,2.286,2.286,0,0,1-.056-.562,1.63,1.63,0,0,1,.177-.881.645.645,0,0,1,.553-.243Zm4.887-8.541a1.334,1.334,0,1,1,.391.939,1.3,1.3,0,0,1-.391-.939m1.572-2.714a1.343,1.343,0,1,1,.393.936,1.282,1.282,0,0,1-.393-.936m1.483,2.714a1.286,1.286,0,0,1,.388-.936,1.317,1.317,0,0,1,1.878,0,1.32,1.32,0,0,1,0,1.875,1.327,1.327,0,0,1-2.266-.939" transform="translate(-1536.849 -4502.76)" fill="#e04403"/><path d="M437.634,4951.017a1.133,1.133,0,0,1-.281-.03.464.464,0,0,1-.235-.128.7.7,0,0,1-.158-.308,2.279,2.279,0,0,1-.058-.562,1.617,1.617,0,0,1,.177-.882.643.643,0,0,1,.556-.245H440.4a1.505,1.505,0,0,1,.281.029.457.457,0,0,1,.233.134.666.666,0,0,1,.16.309,2.136,2.136,0,0,1,.056.561,1.558,1.558,0,0,1-.177.878.637.637,0,0,1-.553.245Z" transform="translate(-1527.504 -4495.362)" fill="#e04403"/><path d="M438.774,4951.017a1.113,1.113,0,0,1-.279-.03.454.454,0,0,1-.235-.128.7.7,0,0,1-.158-.308,2.172,2.172,0,0,1-.058-.562,1.593,1.593,0,0,1,.177-.882.641.641,0,0,1,.553-.245h2.773a1.5,1.5,0,0,1,.281.029.478.478,0,0,1,.233.134.691.691,0,0,1,.16.309,2.259,2.259,0,0,1,.053.561,1.583,1.583,0,0,1-.175.878.64.64,0,0,1-.553.245Z" transform="translate(-1525.873 -4495.362)" fill="#e04403"/><path d="M442.069,4955.456v-11.218h2.436v13.373h-4.591a1.114,1.114,0,0,1-.279-.03.452.452,0,0,1-.235-.13.7.7,0,0,1-.16-.309,2.272,2.272,0,0,1-.053-.56,1.573,1.573,0,0,1,.177-.882.632.632,0,0,1,.551-.245Z" transform="translate(-1524.243 -4501.955)" fill="#e04403"/><rect width="2.434" height="13.372" transform="translate(-1077.471 442.283)" fill="#e04403"/><path d="M453.519,4957.368a5.624,5.624,0,0,1-.871-.065,2.813,2.813,0,0,1-.776-.233,2.022,2.022,0,0,1-.626-.461,1.95,1.95,0,0,1-.422-.757c-.211.049-.432.09-.655.123a5.216,5.216,0,0,1-.675.044,4.958,4.958,0,0,1-1.087-.138,3.479,3.479,0,0,1-1.17-.516,3.064,3.064,0,0,1-.934-1.04,3.359,3.359,0,0,1-.386-1.713,3.771,3.771,0,0,1,.366-1.743,3.458,3.458,0,0,1,.934-1.162,3.679,3.679,0,0,1,1.274-.645,5,5,0,0,1,1.378-.2h3.183v5.6a1.115,1.115,0,0,0,.112.589c.073.106.25.157.524.157h.449a1.525,1.525,0,0,1,.281.029.448.448,0,0,1,.233.134.646.646,0,0,1,.16.309,2.246,2.246,0,0,1,.056.561,1.558,1.558,0,0,1-.177.878.637.637,0,0,1-.553.245Zm-6.347-11.63a1.324,1.324,0,1,1,1.33,1.329,1.343,1.343,0,0,1-1.33-1.329m1.123,6.753a2.1,2.1,0,0,0,.058.473,1.1,1.1,0,0,0,.2.447,1.161,1.161,0,0,0,.4.324,1.387,1.387,0,0,0,.645.132c.165,0,.328,0,.5-.018a2.013,2.013,0,0,0,.514-.114v-2.567h-.937a1.367,1.367,0,0,0-1.038.365,1.316,1.316,0,0,0-.347.958m1.931-6.753a1.327,1.327,0,0,1,2.269-.937,1.33,1.33,0,0,1-.941,2.267,1.339,1.339,0,0,1-1.327-1.329" transform="translate(-1514.644 -4501.713)" fill="#e04403"/><path d="M449.734,4951.017a1.115,1.115,0,0,1-.279-.03.454.454,0,0,1-.235-.128.7.7,0,0,1-.158-.308,2.166,2.166,0,0,1-.058-.562,1.617,1.617,0,0,1,.177-.882.642.642,0,0,1,.553-.245h2.773a1.5,1.5,0,0,1,.281.029.458.458,0,0,1,.233.134.666.666,0,0,1,.158.309,2.119,2.119,0,0,1,.058.561,1.579,1.579,0,0,1-.177.878.64.64,0,0,1-.553.245Z" transform="translate(-1510.24 -4495.362)" fill="#e04403"/><path d="M450.876,4951.017a1.115,1.115,0,0,1-.279-.03.454.454,0,0,1-.235-.128.673.673,0,0,1-.158-.308,2.16,2.16,0,0,1-.058-.562,1.594,1.594,0,0,1,.177-.882.642.642,0,0,1,.553-.245h2.773a1.477,1.477,0,0,1,.279.029.457.457,0,0,1,.233.134.644.644,0,0,1,.16.309,2.135,2.135,0,0,1,.056.561,1.558,1.558,0,0,1-.177.878.632.632,0,0,1-.551.245Z" transform="translate(-1508.611 -4495.362)" fill="#e04403"/><path d="M453.16,4955.686a1.507,1.507,0,0,0,.891-.193c.17-.134.255-.43.255-.891v-4.214h2.434v4.008a1.509,1.509,0,0,0,.26.991,1.6,1.6,0,0,0,1.162.3,1.483,1.483,0,0,1,.281.029.486.486,0,0,1,.235.132.713.713,0,0,1,.158.308,2.159,2.159,0,0,1,.058.563,1.529,1.529,0,0,1-.182.878.629.629,0,0,1-.551.245,3.113,3.113,0,0,1-1.048-.178,1.6,1.6,0,0,1-.844-.778,1.858,1.858,0,0,1-.541.517,2.463,2.463,0,0,1-.675.289,3.908,3.908,0,0,1-.74.12c-.257.022-.51.03-.76.03h-1.533a1.121,1.121,0,0,1-.281-.03.438.438,0,0,1-.233-.13.679.679,0,0,1-.162-.309,2.392,2.392,0,0,1-.053-.56,1.573,1.573,0,0,1,.177-.882.635.635,0,0,1,.553-.245Zm4.571-7.173h-4.273v-1.535h.864a1.165,1.165,0,0,1-.141-.419,2.769,2.769,0,0,1-.046-.459,2.1,2.1,0,0,1,.17-.882,1.855,1.855,0,0,1,.446-.628,1.917,1.917,0,0,1,.638-.381,2.114,2.114,0,0,1,.75-.133,2.628,2.628,0,0,1,.628.074c.192.052.357.1.495.15v1.442a4.548,4.548,0,0,0-.495-.1,3.025,3.025,0,0,0-.311-.027.784.784,0,0,0-.609.2.683.683,0,0,0-.18.477.718.718,0,0,0,.18.486.937.937,0,0,0,.721.206h1.162Z" transform="translate(-1506.981 -4502.187)" fill="#e04403"/><path d="M454.55,4951.017a1.114,1.114,0,0,1-.279-.03.453.453,0,0,1-.235-.128.673.673,0,0,1-.158-.308,2.166,2.166,0,0,1-.058-.562,1.594,1.594,0,0,1,.177-.882.641.641,0,0,1,.553-.245h2.773a1.479,1.479,0,0,1,.279.029.458.458,0,0,1,.233.134.645.645,0,0,1,.16.309,2.13,2.13,0,0,1,.056.561,1.558,1.558,0,0,1-.177.878.635.635,0,0,1-.551.245Z" transform="translate(-1503.371 -4495.362)" fill="#e04403"/><path d="M455.693,4951.017a1.1,1.1,0,0,1-.279-.03.47.47,0,0,1-.238-.128.723.723,0,0,1-.158-.308,2.3,2.3,0,0,1-.056-.562,1.594,1.594,0,0,1,.177-.882.639.639,0,0,1,.553-.245h2.773a1.479,1.479,0,0,1,.279.029.458.458,0,0,1,.233.134.667.667,0,0,1,.16.309,2.136,2.136,0,0,1,.056.561,1.558,1.558,0,0,1-.177.878.635.635,0,0,1-.551.245Z" transform="translate(-1501.741 -4495.362)" fill="#e04403"/><path d="M457.6,4956.26c.277,0,.5,0,.684-.02a1.072,1.072,0,0,0,.439-.111.552.552,0,0,0,.245-.272,1.347,1.347,0,0,0,.073-.5v-3.577h2.4v3.184a1.321,1.321,0,0,0,.328.947,1.347,1.347,0,0,0,1.021.346,2.264,2.264,0,0,0,.927-.17.71.71,0,0,0,.386-.729v-3.577h2.434v3.184c0,.861.366,1.293,1.1,1.293H468.8v-5.3h2.436v7.453h-2.868a3.763,3.763,0,0,1-1.5-.233,2.149,2.149,0,0,1-.861-.742,2.348,2.348,0,0,1-.6.551,2.534,2.534,0,0,1-.655.293,3.073,3.073,0,0,1-.667.112c-.218.012-.427.02-.626.02a3.676,3.676,0,0,1-1.6-.311,2.617,2.617,0,0,1-.927-.665,2.123,2.123,0,0,1-1.313.815,10.689,10.689,0,0,1-2.057.16h-.73a1.431,1.431,0,0,1-.281-.027.5.5,0,0,1-.235-.133.677.677,0,0,1-.158-.309,2.268,2.268,0,0,1-.058-.562,1.631,1.631,0,0,1,.177-.881.65.65,0,0,1,.556-.243Zm4.775-8.541a1.338,1.338,0,1,1,.393.939,1.291,1.291,0,0,1-.393-.939m1.575-2.714a1.343,1.343,0,1,1,.393.936,1.273,1.273,0,0,1-.393-.936m1.478,2.714a1.338,1.338,0,1,1,.393.939,1.291,1.291,0,0,1-.393-.939" transform="translate(-1500.113 -4502.76)" fill="#e04403"/><path d="M467.686,4956.488a1.558,1.558,0,0,1-.177.878.634.634,0,0,1-.553.245h-.786a4.527,4.527,0,0,1-1.17-.142,2.222,2.222,0,0,1-.917-.468,2.123,2.123,0,0,1-.6-.868,3.65,3.65,0,0,1-.216-1.35v-10.546H465.7v10.208c0,.438.075.717.23.833a1.1,1.1,0,0,0,.667.177h.354a1.526,1.526,0,0,1,.281.029.458.458,0,0,1,.233.134.69.69,0,0,1,.163.309,2.39,2.39,0,0,1,.053.561" transform="translate(-1489.895 -4501.955)" fill="#e04403"/><path d="M465.209,4951.017a1.114,1.114,0,0,1-.279-.03.454.454,0,0,1-.235-.128.675.675,0,0,1-.158-.308,2.166,2.166,0,0,1-.058-.562,1.594,1.594,0,0,1,.177-.882.642.642,0,0,1,.553-.245h2.773a1.457,1.457,0,0,1,.279.029.457.457,0,0,1,.233.134.644.644,0,0,1,.16.309,2.136,2.136,0,0,1,.056.561,1.558,1.558,0,0,1-.177.878.632.632,0,0,1-.551.245Z" transform="translate(-1488.167 -4495.362)" fill="#e04403"/><path d="M466.352,4951.017a1.113,1.113,0,0,1-.279-.03.454.454,0,0,1-.235-.128.7.7,0,0,1-.16-.308,2.3,2.3,0,0,1-.056-.562,1.593,1.593,0,0,1,.177-.882.641.641,0,0,1,.553-.245h2.773a1.477,1.477,0,0,1,.279.029.458.458,0,0,1,.233.134.645.645,0,0,1,.16.309,2.13,2.13,0,0,1,.056.561,1.558,1.558,0,0,1-.177.878.635.635,0,0,1-.551.245Z" transform="translate(-1486.537 -4495.362)" fill="#e04403"/><path d="M469.641,4954.664v-5.3h2.434v7.453h-4.586a1.412,1.412,0,0,1-.281-.027.474.474,0,0,1-.235-.133.7.7,0,0,1-.16-.309,2.286,2.286,0,0,1-.056-.562,1.587,1.587,0,0,1,.177-.881.65.65,0,0,1,.556-.243Zm-.15-8.541a1.338,1.338,0,1,1,.393.939,1.29,1.29,0,0,1-.393-.939" transform="translate(-1484.92 -4501.165)" fill="#e04403"/><path d="M419.13,4963.222a2.4,2.4,0,0,0,.245,1.142,2.073,2.073,0,0,0,.645.758,2.756,2.756,0,0,0,.937.432,4.333,4.333,0,0,0,1.133.144,5.878,5.878,0,0,0,.842-.068,2.947,2.947,0,0,0,.842-.252,1.866,1.866,0,0,0,.658-.515,1.294,1.294,0,0,0,.26-.834,1.161,1.161,0,0,0-.347-.879,2.822,2.822,0,0,0-.907-.572,7.576,7.576,0,0,0-1.271-.394c-.476-.106-.958-.226-1.444-.363a13.371,13.371,0,0,1-1.461-.461,4.906,4.906,0,0,1-1.274-.7,3.33,3.33,0,0,1-.907-1.065,3.263,3.263,0,0,1-.347-1.574,3.5,3.5,0,0,1,.439-1.789,3.984,3.984,0,0,1,1.153-1.262,4.949,4.949,0,0,1,1.611-.75,6.862,6.862,0,0,1,1.8-.244,8.556,8.556,0,0,1,2.014.234,4.993,4.993,0,0,1,1.713.76,3.806,3.806,0,0,1,1.189,1.338,4.1,4.1,0,0,1,.439,1.978h-2.846a2.353,2.353,0,0,0-.252-.993,1.628,1.628,0,0,0-.57-.618,2.369,2.369,0,0,0-.825-.318,4.963,4.963,0,0,0-.992-.095,3.5,3.5,0,0,0-.711.075,1.929,1.929,0,0,0-.648.264,1.518,1.518,0,0,0-.476.477,1.256,1.256,0,0,0-.187.7,1.21,1.21,0,0,0,.148.638,1.267,1.267,0,0,0,.59.439,8.867,8.867,0,0,0,1.218.412q.775.215,2.031.534c.163.039.374.091.638.158a6.974,6.974,0,0,1,.835.284,5.262,5.262,0,0,1,.878.456,3.847,3.847,0,0,1,.806.693,3.237,3.237,0,0,1,.59.983,3.567,3.567,0,0,1,.226,1.319,4.088,4.088,0,0,1-.357,1.706,3.7,3.7,0,0,1-1.058,1.355,5.253,5.253,0,0,1-1.742.9,8,8,0,0,1-2.4.328,8.2,8.2,0,0,1-2.147-.282,5.418,5.418,0,0,1-1.825-.861,4.21,4.21,0,0,1-1.723-3.614Z" transform="translate(-1556.913 -4488.075)" fill="#e04403"/><path d="M421.524,4954.1h2.662v5.04h.053a3.193,3.193,0,0,1,1.293-1.219,3.425,3.425,0,0,1,1.536-.393,4.6,4.6,0,0,1,1.752.288,2.632,2.632,0,0,1,1.075.806,3.086,3.086,0,0,1,.553,1.257,7.761,7.761,0,0,1,.16,1.639v5.953h-2.662v-5.466a3.313,3.313,0,0,0-.383-1.788,1.45,1.45,0,0,0-1.32-.593,1.84,1.84,0,0,0-1.572.646,3.592,3.592,0,0,0-.485,2.127v5.073h-2.662Z" transform="translate(-1549.437 -4487.889)" fill="#e04403"/><path d="M426.232,4958.753a3.084,3.084,0,0,1,.466-1.553,3.181,3.181,0,0,1,1.051-.993,4.559,4.559,0,0,1,1.424-.533,8.028,8.028,0,0,1,1.609-.16,10.751,10.751,0,0,1,1.48.1,4.474,4.474,0,0,1,1.366.405,2.671,2.671,0,0,1,1.014.841,2.359,2.359,0,0,1,.391,1.4v5.038a9.937,9.937,0,0,0,.075,1.257,2.238,2.238,0,0,0,.262.9h-2.7a4.011,4.011,0,0,1-.121-.456c-.029-.157-.051-.314-.066-.479a3.523,3.523,0,0,1-1.5.929,5.876,5.876,0,0,1-1.761.272,4.524,4.524,0,0,1-1.291-.18,3.153,3.153,0,0,1-1.051-.531,2.475,2.475,0,0,1-.7-.9,3.046,3.046,0,0,1-.252-1.292,2.938,2.938,0,0,1,.279-1.356,2.34,2.34,0,0,1,.752-.854,3.483,3.483,0,0,1,1.056-.476,11.519,11.519,0,0,1,1.208-.255c.412-.061.806-.111,1.179-.147a6.786,6.786,0,0,0,1-.17,1.821,1.821,0,0,0,.7-.328.763.763,0,0,0,.262-.626,1.428,1.428,0,0,0-.141-.685,1.037,1.037,0,0,0-.374-.392,1.52,1.52,0,0,0-.546-.189,4.525,4.525,0,0,0-.662-.044,2.023,2.023,0,0,0-1.228.337,1.488,1.488,0,0,0-.534,1.121Zm6.141,1.968a1.2,1.2,0,0,1-.422.234,4.394,4.394,0,0,1-.541.139c-.2.039-.4.07-.619.095s-.427.056-.628.093a4.524,4.524,0,0,0-.6.15,1.756,1.756,0,0,0-.5.253,1.174,1.174,0,0,0-.347.412,1.312,1.312,0,0,0-.133.606,1.243,1.243,0,0,0,.133.611,1.023,1.023,0,0,0,.357.375,1.51,1.51,0,0,0,.522.2,3.476,3.476,0,0,0,.619.053,2.375,2.375,0,0,0,1.218-.259,1.8,1.8,0,0,0,.638-.628,1.953,1.953,0,0,0,.25-.743,4.975,4.975,0,0,0,.049-.6Z" transform="translate(-1543.151 -4485.873)" fill="#e04403"/><path d="M430.531,4955.774h2.528v1.8h.039a3.183,3.183,0,0,1,.5-.834,3.351,3.351,0,0,1,.728-.653,3.587,3.587,0,0,1,.893-.422,3.186,3.186,0,0,1,.963-.147,1.792,1.792,0,0,1,.58.092v2.47c-.124-.024-.274-.043-.449-.063a4.818,4.818,0,0,0-.507-.028,2.8,2.8,0,0,0-1.235.244,2.144,2.144,0,0,0-.815.663,2.682,2.682,0,0,0-.439.992,5.431,5.431,0,0,0-.131,1.208v4.362h-2.659Z" transform="translate(-1536.59 -4485.872)" fill="#e04403"/><path d="M432.97,4968.615a1.894,1.894,0,0,0,.58.074,1.56,1.56,0,0,0,.723-.159c.206-.106.308-.339.308-.7v-10.037h2.659v10.169a4.6,4.6,0,0,1-.16,1.292,2.009,2.009,0,0,1-.541.909,2.374,2.374,0,0,1-1.041.543,6.481,6.481,0,0,1-1.667.178c-.136,0-.281-.007-.429-.021a3.641,3.641,0,0,1-.432-.056Zm4.27-12.323h-2.659V4954.1h2.659Z" transform="translate(-1533.111 -4487.889)" fill="#e04403"/><path d="M435.808,4958.753a3.086,3.086,0,0,1,.468-1.553,3.175,3.175,0,0,1,1.048-.993,4.561,4.561,0,0,1,1.424-.533,8.052,8.052,0,0,1,1.611-.16,10.744,10.744,0,0,1,1.478.1,4.489,4.489,0,0,1,1.368.405,2.681,2.681,0,0,1,1.012.841,2.342,2.342,0,0,1,.393,1.4v5.038a9.947,9.947,0,0,0,.073,1.257,2.278,2.278,0,0,0,.262.9h-2.7a4.036,4.036,0,0,1-.121-.456,3.829,3.829,0,0,1-.066-.479,3.546,3.546,0,0,1-1.5.929,5.86,5.86,0,0,1-1.759.272,4.541,4.541,0,0,1-1.293-.18,3.14,3.14,0,0,1-1.048-.531,2.479,2.479,0,0,1-.7-.9,3.047,3.047,0,0,1-.25-1.292,2.908,2.908,0,0,1,.279-1.356,2.312,2.312,0,0,1,.75-.854,3.5,3.5,0,0,1,1.058-.476,11.389,11.389,0,0,1,1.208-.255c.41-.061.8-.111,1.177-.147a6.737,6.737,0,0,0,1-.17,1.833,1.833,0,0,0,.7-.328.768.768,0,0,0,.26-.626,1.428,1.428,0,0,0-.141-.685,1,1,0,0,0-.374-.392,1.524,1.524,0,0,0-.544-.189,4.583,4.583,0,0,0-.665-.044,2.024,2.024,0,0,0-1.228.337,1.489,1.489,0,0,0-.534,1.121Zm6.141,1.968a1.216,1.216,0,0,1-.42.234,4.447,4.447,0,0,1-.543.139c-.194.039-.4.07-.616.095s-.429.056-.628.093a4.657,4.657,0,0,0-.6.15,1.822,1.822,0,0,0-.5.253,1.2,1.2,0,0,0-.347.412,1.31,1.31,0,0,0-.131.606,1.242,1.242,0,0,0,.131.611,1.022,1.022,0,0,0,.357.375,1.53,1.53,0,0,0,.522.2,3.506,3.506,0,0,0,.621.053,2.365,2.365,0,0,0,1.216-.259,1.776,1.776,0,0,0,.638-.628,1.912,1.912,0,0,0,.25-.743,4.533,4.533,0,0,0,.049-.6Z" transform="translate(-1529.488 -4485.873)" fill="#e04403"/><path d="M440.109,4954.1h2.662v5.04h.053a3.193,3.193,0,0,1,1.293-1.219,3.425,3.425,0,0,1,1.536-.393,4.6,4.6,0,0,1,1.752.288,2.63,2.63,0,0,1,1.075.806,3.086,3.086,0,0,1,.553,1.257,7.761,7.761,0,0,1,.16,1.639v5.953h-2.662v-5.466a3.313,3.313,0,0,0-.383-1.788,1.449,1.449,0,0,0-1.32-.593,1.84,1.84,0,0,0-1.572.646,3.592,3.592,0,0,0-.485,2.127v5.073h-2.662Z" transform="translate(-1522.928 -4487.889)" fill="#e04403"/><path d="M451.272,4962.267l-4.926-8.166h3.314l3.128,5.283,3.108-5.283h3.278l-4.962,8.24v5.133h-2.941Z" transform="translate(-1514.032 -4487.889)" fill="#e04403"/><path d="M451.146,4960.627a5.949,5.949,0,0,1,.357-2.109,4.515,4.515,0,0,1,1.012-1.611,4.567,4.567,0,0,1,1.572-1.028,5.5,5.5,0,0,1,2.062-.363,5.569,5.569,0,0,1,2.067.363,4.386,4.386,0,0,1,2.594,2.64,5.949,5.949,0,0,1,.357,2.109,5.865,5.865,0,0,1-.357,2.1,4.578,4.578,0,0,1-1.009,1.6,4.516,4.516,0,0,1-1.584,1.03,5.569,5.569,0,0,1-2.067.367,5.5,5.5,0,0,1-2.062-.367,4.453,4.453,0,0,1-2.584-2.63,5.865,5.865,0,0,1-.357-2.1m2.662,0a5.667,5.667,0,0,0,.112,1.132,2.97,2.97,0,0,0,.383.993,2.059,2.059,0,0,0,.721.7,2.208,2.208,0,0,0,1.126.262,2.261,2.261,0,0,0,1.133-.262,2.04,2.04,0,0,0,.728-.7,3.081,3.081,0,0,0,.386-.993,5.853,5.853,0,0,0,.112-1.132,6.027,6.027,0,0,0-.112-1.146,2.968,2.968,0,0,0-.386-.991,2.108,2.108,0,0,0-.728-.7,2.2,2.2,0,0,0-1.133-.272,2.15,2.15,0,0,0-1.126.272,2.128,2.128,0,0,0-.721.7,2.866,2.866,0,0,0-.383.991,5.836,5.836,0,0,0-.112,1.146" transform="translate(-1507.185 -4485.872)" fill="#e04403"/><path d="M465.069,4965.3h-2.528v-1.348h-.056a3.15,3.15,0,0,1-1.31,1.218,3.7,3.7,0,0,1-1.647.394,4.5,4.5,0,0,1-1.752-.292,2.559,2.559,0,0,1-1.077-.8,3.123,3.123,0,0,1-.553-1.255,7.751,7.751,0,0,1-.158-1.638v-5.957h2.659v5.469a3.309,3.309,0,0,0,.383,1.788,1.452,1.452,0,0,0,1.32.59,1.84,1.84,0,0,0,1.572-.646,3.584,3.584,0,0,0,.488-2.125v-5.076h2.659Z" transform="translate(-1500.28 -4485.719)" fill="#e04403"/><path d="M464.462,4957.328h1.948v1.778h-1.948v4.795a.9.9,0,0,0,1.126,1.126,4.291,4.291,0,0,0,.823-.075v2.077a5.91,5.91,0,0,1-.75.074c-.274.013-.541.021-.806.021a7.793,7.793,0,0,1-1.17-.085,2.621,2.621,0,0,1-.975-.338,1.792,1.792,0,0,1-.662-.7,2.474,2.474,0,0,1-.245-1.179v-5.715h-1.611v-1.778H461.8v-2.9h2.659Z" transform="translate(-1494.282 -4487.425)" fill="#e04403"/><path d="M463.28,4954.1h2.659v5.04H466a3.187,3.187,0,0,1,1.291-1.219,3.432,3.432,0,0,1,1.536-.393,4.579,4.579,0,0,1,1.752.288,2.616,2.616,0,0,1,1.075.806,3.121,3.121,0,0,1,.556,1.257,7.925,7.925,0,0,1,.158,1.639v5.953H469.7v-5.466a3.337,3.337,0,0,0-.383-1.788,1.452,1.452,0,0,0-1.323-.593,1.835,1.835,0,0,0-1.57.646,3.572,3.572,0,0,0-.488,2.127v5.073H463.28Z" transform="translate(-1489.878 -4487.889)" fill="#e04403"/><path d="M405.3,4864.091v177.465H582.259V4864.091ZM573.41,5032.709H414.151V4872.94H573.41Z" transform="translate(-1572.573 -4616.274)" fill="#e04403"/><path d="M363.954,4984.446h12.474v3.281h-8.572v4.1h7.43v3.033h-7.43v7.328h-3.9Z" transform="translate(-1631.552 -4444.604)" fill="#270089"/><path d="M369.708,4993.637a11.161,11.161,0,0,1,.6-3.676,8.881,8.881,0,0,1,1.715-2.984,7.852,7.852,0,0,1,2.734-1.985,9.765,9.765,0,0,1,7.349,0,7.9,7.9,0,0,1,2.735,1.985,8.882,8.882,0,0,1,1.715,2.984,11.163,11.163,0,0,1,.6,3.676,10.8,10.8,0,0,1-.6,3.6,8.625,8.625,0,0,1-1.715,2.931,7.889,7.889,0,0,1-2.735,1.962,9.716,9.716,0,0,1-7.349,0,7.845,7.845,0,0,1-2.734-1.962,8.624,8.624,0,0,1-1.715-2.931,10.8,10.8,0,0,1-.6-3.6m3.9,0a8.992,8.992,0,0,0,.262,2.176,6,6,0,0,0,.827,1.9,4.3,4.3,0,0,0,1.492,1.349,5.164,5.164,0,0,0,4.474,0,4.3,4.3,0,0,0,1.492-1.349,5.892,5.892,0,0,0,.827-1.9,8.88,8.88,0,0,0,.265-2.176,9.555,9.555,0,0,0-.265-2.261,5.906,5.906,0,0,0-.827-1.946,4.236,4.236,0,0,0-1.492-1.369,5.173,5.173,0,0,0-4.474,0,4.236,4.236,0,0,0-1.492,1.369,6.008,6.008,0,0,0-.827,1.946,9.676,9.676,0,0,0-.262,2.261" transform="translate(-1623.345 -4444.852)" fill="#270089"/><path d="M377.994,4984.446h9.562a5.771,5.771,0,0,1,2.152.384,4.961,4.961,0,0,1,1.638,1.061,4.423,4.423,0,0,1,1.041,1.567,4.889,4.889,0,0,1,.362,1.888,5.34,5.34,0,0,1-.655,2.706,4.137,4.137,0,0,1-2.152,1.739v.051a2.977,2.977,0,0,1,1.194.606,3.393,3.393,0,0,1,.772.98,4.657,4.657,0,0,1,.434,1.23,9.852,9.852,0,0,1,.184,1.331c.017.28.034.609.049.993s.049.764.087,1.155a8.913,8.913,0,0,0,.2,1.13,2.69,2.69,0,0,0,.405.92h-3.9a4.493,4.493,0,0,1-.262-.932c-.058-.343-.1-.7-.146-1.069s-.078-.753-.1-1.144-.058-.76-.114-1.1a3.52,3.52,0,0,0-.842-2.038,2.9,2.9,0,0,0-2.113-.646h-3.9v6.933h-3.9Zm3.9,8.027h4.27a2.958,2.958,0,0,0,2-.6,2.453,2.453,0,0,0,.682-1.938,2.336,2.336,0,0,0-.682-1.873,3.009,3.009,0,0,0-2-.585H381.9Z" transform="translate(-1611.527 -4444.604)" fill="#270089"/><rect width="3.902" height="17.742" transform="translate(-1208.689 539.842)" fill="#270089"/><path d="M391.255,4984.446h3.875l7.4,11.9h.053v-11.9h3.652v17.742h-3.9l-7.381-11.878h-.046v11.878h-3.652Z" transform="translate(-1592.612 -4444.604)" fill="#270089"/><path d="M414.053,5004.1l-2.509-2.29a7.566,7.566,0,0,1-1.948.773,9.565,9.565,0,0,1-2.349.272,8.925,8.925,0,0,1-3.678-.722,7.9,7.9,0,0,1-2.732-1.962,8.614,8.614,0,0,1-1.715-2.931,10.8,10.8,0,0,1-.6-3.6,11.162,11.162,0,0,1,.6-3.676,8.842,8.842,0,0,1,1.715-2.984,7.885,7.885,0,0,1,2.732-1.985,9.778,9.778,0,0,1,7.354,0,7.873,7.873,0,0,1,2.735,1.985,8.877,8.877,0,0,1,1.713,2.984,11.1,11.1,0,0,1,.6,3.676,10.6,10.6,0,0,1-.6,3.6,8.9,8.9,0,0,1-1.713,2.931l2.21,2.017Zm-5.093-8.225,2.014,1.842a5.377,5.377,0,0,0,.793-1.682,8.572,8.572,0,0,0,.3-2.4,9.683,9.683,0,0,0-.262-2.261,5.911,5.911,0,0,0-.83-1.946,4.216,4.216,0,0,0-1.492-1.369,5.167,5.167,0,0,0-4.472,0,4.176,4.176,0,0,0-1.492,1.369,6.013,6.013,0,0,0-.83,1.946,9.812,9.812,0,0,0-.262,2.261,9.106,9.106,0,0,0,.262,2.176,6,6,0,0,0,.83,1.9,4.237,4.237,0,0,0,1.492,1.349,4.567,4.567,0,0,0,2.237.51c.281,0,.577-.01.893-.024a.982.982,0,0,0,.67-.221l-1.664-1.517Z" transform="translate(-1582.246 -4444.852)" fill="#270089"/><path d="M421.906,4995.48a6.768,6.768,0,0,1-2.009,5.366,9.723,9.723,0,0,1-11.147.012q-1.976-1.75-1.973-5.378v-11.034h3.9v11.034a7.785,7.785,0,0,0,.126,1.414,2.92,2.92,0,0,0,.522,1.246,2.747,2.747,0,0,0,1.1.87,4.69,4.69,0,0,0,1.9.319,3.645,3.645,0,0,0,2.882-.932,4.442,4.442,0,0,0,.8-2.918v-11.034h3.9Z" transform="translate(-1570.47 -4444.604)" fill="#270089"/><rect width="3.902" height="17.742" transform="translate(-1145.206 539.842)" fill="#270089"/><path d="M417.418,4984.446h9.562a5.771,5.771,0,0,1,2.152.384,4.961,4.961,0,0,1,1.638,1.061,4.462,4.462,0,0,1,1.043,1.567,4.937,4.937,0,0,1,.362,1.888,5.34,5.34,0,0,1-.658,2.706,4.138,4.138,0,0,1-2.152,1.739v.051a2.987,2.987,0,0,1,1.2.606,3.479,3.479,0,0,1,.772.98,4.654,4.654,0,0,1,.432,1.23,10.262,10.262,0,0,1,.187,1.331c.017.28.031.609.046.993s.051.764.09,1.155a8.488,8.488,0,0,0,.2,1.13,2.693,2.693,0,0,0,.408.92h-3.9a4.21,4.21,0,0,1-.262-.932c-.058-.343-.107-.7-.148-1.069s-.075-.753-.1-1.144-.058-.76-.112-1.1a3.521,3.521,0,0,0-.844-2.038,2.9,2.9,0,0,0-2.113-.646h-3.9v6.933h-3.9Zm3.9,8.027h4.27a2.958,2.958,0,0,0,2-.6,2.444,2.444,0,0,0,.682-1.938,2.327,2.327,0,0,0-.682-1.873,3.008,3.008,0,0,0-2-.585h-4.27Z" transform="translate(-1555.294 -4444.604)" fill="#270089"/><rect width="3.902" height="17.742" transform="translate(-1119.94 539.842)" fill="#270089"/><path d="M427.831,4984.446H441.1v3.281h-9.368v3.8h8.594v3.033h-8.594v4.348H441.3v3.281H427.831Z" transform="translate(-1540.441 -4444.604)" fill="#270089"/><path d="M437.783,4996.546a3.288,3.288,0,0,0,.323,1.517,2.843,2.843,0,0,0,.856,1,3.7,3.7,0,0,0,1.242.572,5.775,5.775,0,0,0,1.5.187,7.122,7.122,0,0,0,1.121-.09,3.827,3.827,0,0,0,1.116-.335,2.366,2.366,0,0,0,.869-.682,1.719,1.719,0,0,0,.347-1.106,1.55,1.55,0,0,0-.459-1.167,3.775,3.775,0,0,0-1.208-.757,10.058,10.058,0,0,0-1.684-.521c-.633-.141-1.269-.3-1.914-.485a17.614,17.614,0,0,1-1.941-.606,6.8,6.8,0,0,1-1.686-.934,4.412,4.412,0,0,1-1.2-1.415,4.309,4.309,0,0,1-.463-2.09,4.665,4.665,0,0,1,.585-2.373,5.3,5.3,0,0,1,1.529-1.679,6.709,6.709,0,0,1,2.138-.989,8.957,8.957,0,0,1,2.383-.323,11.059,11.059,0,0,1,2.671.311,6.719,6.719,0,0,1,2.274,1,5.11,5.11,0,0,1,1.577,1.78,5.465,5.465,0,0,1,.59,2.621H444.57a3.251,3.251,0,0,0-.337-1.317,2.219,2.219,0,0,0-.759-.822,3.332,3.332,0,0,0-1.092-.42,6.918,6.918,0,0,0-1.318-.126,4.63,4.63,0,0,0-.944.1,2.545,2.545,0,0,0-.859.347,2.049,2.049,0,0,0-.633.637,1.658,1.658,0,0,0-.247.931,1.589,1.589,0,0,0,.2.845,1.709,1.709,0,0,0,.779.58,11.936,11.936,0,0,0,1.618.548q1.034.292,2.7.711c.218.049.5.119.842.211a8.633,8.633,0,0,1,1.109.372,7.5,7.5,0,0,1,1.17.606,5.275,5.275,0,0,1,1.068.922,4.247,4.247,0,0,1,.781,1.3,4.782,4.782,0,0,1,.3,1.754,5.407,5.407,0,0,1-.473,2.262,4.9,4.9,0,0,1-1.4,1.8,6.932,6.932,0,0,1-2.31,1.19,11.454,11.454,0,0,1-6.037.061,7.145,7.145,0,0,1-2.422-1.137,5.595,5.595,0,0,1-2.291-4.8Z" transform="translate(-1531.635 -4444.852)" fill="#270089"/><rect width="3.101" height="28.985" transform="translate(-1064.301 534.8)" fill="#270089"/><rect width="3.101" height="28.985" transform="translate(-1064.301 596.667)" fill="#270089"/><rect width="3.101" height="28.985" transform="translate(-1064.301 658.75)" fill="#270089"/><path d="M463.246,4987.529h3.771v8.641a16.8,16.8,0,0,1-.32,3.533,5.26,5.26,0,0,1-1.116,2.361,4.492,4.492,0,0,1-2.2,1.319,13.966,13.966,0,0,1-3.581.438v-3.538a6.416,6.416,0,0,0,1.871-.262,1.93,1.93,0,0,0,1.024-.738,2.885,2.885,0,0,0,.456-1.273,15.28,15.28,0,0,0,.1-1.84Z" transform="translate(-1494.847 -4440.207)" fill="#270089"/><path d="M471.046,5002.185a2.446,2.446,0,0,1-.276,1.363.993.993,0,0,1-.857.376H468.7a7.082,7.082,0,0,1-1.812-.219,3.534,3.534,0,0,1-1.419-.723,3.356,3.356,0,0,1-.924-1.349,5.712,5.712,0,0,1-.335-2.084v-16.32h3.768v15.8c0,.679.121,1.1.364,1.29a1.646,1.646,0,0,0,1.029.277h.548a2.417,2.417,0,0,1,.437.038.739.739,0,0,1,.359.206,1.026,1.026,0,0,1,.247.479,3.311,3.311,0,0,1,.09.869" transform="translate(-1488.56 -4446.34)" fill="#270089"/><path d="M468.225,4995.208c.425,0,.776-.012,1.06-.028a1.736,1.736,0,0,0,.679-.174.855.855,0,0,0,.376-.421,2.082,2.082,0,0,0,.116-.767v-5.538h3.771v4.927a2.048,2.048,0,0,0,.5,1.463,2,2,0,0,0,1.541.538,3.557,3.557,0,0,0,1.451-.262,1.1,1.1,0,0,0,.59-1.128v-5.538h3.771v4.927a2.192,2.192,0,0,0,.446,1.509,1.925,1.925,0,0,0,1.482.492,2.651,2.651,0,0,0,1.293-.274c.325-.187.49-.587.49-1.206V4987h3.768v6.205a2.205,2.205,0,0,0,.434,1.537,2.643,2.643,0,0,0,1.856.464,2.092,2.092,0,0,1,.432.041.728.728,0,0,1,.364.206,1.041,1.041,0,0,1,.248.477,3.574,3.574,0,0,1,.085.868,2.44,2.44,0,0,1-.274,1.366.991.991,0,0,1-.854.373,4.645,4.645,0,0,1-1.652-.3,2.585,2.585,0,0,1-1.337-1.232,3.613,3.613,0,0,1-1.827,1.273,7.98,7.98,0,0,1-2.065.262,6.337,6.337,0,0,1-1.871-.331,3.989,3.989,0,0,1-1.81-1.175,4.048,4.048,0,0,1-1.817,1.244,7.161,7.161,0,0,1-1.99.262,5.02,5.02,0,0,1-4.091-1.506,3.281,3.281,0,0,1-2.036,1.259,16.594,16.594,0,0,1-3.186.247h-.958a2.437,2.437,0,0,1-.439-.042.733.733,0,0,1-.357-.205,1.038,1.038,0,0,1-.25-.476,3.68,3.68,0,0,1-.087-.868,2.4,2.4,0,0,1,.279-1.363.986.986,0,0,1,.854-.377Z" transform="translate(-1485.887 -4440.958)" fill="#270089"/><path d="M479.905,4999.366a3.8,3.8,0,0,1-.335-1.177,9.642,9.642,0,0,1-.1-1.317,6.626,6.626,0,0,1,.393-2.232,6.145,6.145,0,0,1,1.131-1.958,5.627,5.627,0,0,1,1.825-1.376,5.738,5.738,0,0,1,2.506-.521,5.6,5.6,0,0,1,2.727.593,4.758,4.758,0,0,1,1.682,1.51,5.931,5.931,0,0,1,.854,2.026,9.978,9.978,0,0,1,.245,2.159v2.293h2.232a2.158,2.158,0,0,1,.437.041.729.729,0,0,1,.359.206,1.041,1.041,0,0,1,.247.477,3.537,3.537,0,0,1,.09.868,2.462,2.462,0,0,1-.274,1.366,1,1,0,0,1-.859.373H477.353a2.6,2.6,0,0,1-.437-.04.751.751,0,0,1-.359-.2,1.063,1.063,0,0,1-.247-.479,3.532,3.532,0,0,1-.087-.868,2.417,2.417,0,0,1,.277-1.361.982.982,0,0,1,.854-.379Zm3.186-2.666a2.6,2.6,0,0,0,.7,2.084,2.534,2.534,0,0,0,1.682.582h1.655v-2.2a8.238,8.238,0,0,0-.073-1.115,2.814,2.814,0,0,0-.291-.944,1.656,1.656,0,0,0-1.582-.9,2.069,2.069,0,0,0-1,.22,1.92,1.92,0,0,0-.638.564,2.247,2.247,0,0,0-.347.8,4.494,4.494,0,0,0-.1.915m.09-10.553a2.079,2.079,0,0,1,2.057-2.06,1.957,1.957,0,0,1,1.446.611,2.049,2.049,0,1,1-3.5,1.448" transform="translate(-1471.418 -4445.117)" fill="#270089"/><path d="M485.6,4999.366a2.294,2.294,0,0,0,1.378-.309c.26-.2.388-.657.388-1.373v-6.524h3.768v6.205a2.313,2.313,0,0,0,.41,1.537,2.454,2.454,0,0,0,1.793.464,2.183,2.183,0,0,1,.439.041.75.75,0,0,1,.359.206,1.063,1.063,0,0,1,.247.477,3.549,3.549,0,0,1,.087.868,2.462,2.462,0,0,1-.274,1.366,1,1,0,0,1-.859.373,4.863,4.863,0,0,1-1.621-.273,2.464,2.464,0,0,1-1.305-1.2,2.892,2.892,0,0,1-.842.8,3.823,3.823,0,0,1-1.043.449,6.492,6.492,0,0,1-1.145.188c-.4.023-.786.04-1.172.04h-2.378a2.6,2.6,0,0,1-.437-.04.751.751,0,0,1-.359-.2,1.064,1.064,0,0,1-.247-.479,3.521,3.521,0,0,1-.09-.868,2.368,2.368,0,0,1,.281-1.361.977.977,0,0,1,.852-.379Zm-1.017-13.219a2.088,2.088,0,1,1,.611,1.449,1.984,1.984,0,0,1-.611-1.449m4.727,0a2.079,2.079,0,0,1,2.06-2.06,1.957,1.957,0,0,1,1.446.611,2.05,2.05,0,1,1-3.506,1.448" transform="translate(-1462.183 -4445.117)" fill="#270089"/><path d="M488.936,4995.208c.425,0,.776-.012,1.06-.028a1.737,1.737,0,0,0,.679-.174.854.854,0,0,0,.376-.421,2.079,2.079,0,0,0,.117-.767v-5.538h3.708v4.927a2.042,2.042,0,0,0,.51,1.463,2.069,2.069,0,0,0,1.579.538,3.544,3.544,0,0,0,1.434-.262,1.1,1.1,0,0,0,.6-1.128v-5.538h3.766v4.927c0,1.334.573,2,1.711,2h1.8V4987h3.768v11.537H505.6a5.768,5.768,0,0,1-2.317-.361,3.347,3.347,0,0,1-1.335-1.145,3.607,3.607,0,0,1-.927.856,3.907,3.907,0,0,1-1.014.448,4.769,4.769,0,0,1-1.024.173c-.342.021-.665.028-.978.028a5.687,5.687,0,0,1-2.472-.475,3.988,3.988,0,0,1-1.436-1.031,3.277,3.277,0,0,1-2.031,1.259,16.594,16.594,0,0,1-3.186.247h-1.133a2.409,2.409,0,0,1-.437-.042.74.74,0,0,1-.359-.205,1.059,1.059,0,0,1-.248-.476,3.538,3.538,0,0,1-.09-.868,2.417,2.417,0,0,1,.279-1.363.985.985,0,0,1,.854-.377Z" transform="translate(-1456.595 -4440.958)" fill="#270089"/><path d="M516.009,5003.922a5.182,5.182,0,0,1-1.65-.271,2.448,2.448,0,0,1-1.332-1.206,2.982,2.982,0,0,1-.825.8,3.559,3.559,0,0,1-1.034.447,6.118,6.118,0,0,1-1.145.188c-.4.025-.8.042-1.2.042H497.343v-3.331h5.217V4987.46h3.771v13.131h1.883a2.271,2.271,0,0,0,1.378-.309q.389-.3.391-1.373v-15.681h3.766v15.361a2.2,2.2,0,0,0,.439,1.537,2.569,2.569,0,0,0,1.822.464,2.2,2.2,0,0,1,.439.041.761.761,0,0,1,.359.206,1.017,1.017,0,0,1,.248.477,3.448,3.448,0,0,1,.087.871,2.454,2.454,0,0,1-.274,1.363,1,1,0,0,1-.859.373" transform="translate(-1441.291 -4446.342)" fill="#270089"/><path d="M509.034,5000.591v-17.362H512.8v20.693h-7.1a2.411,2.411,0,0,1-.437-.042.74.74,0,0,1-.359-.205,1.059,1.059,0,0,1-.248-.476,3.556,3.556,0,0,1-.087-.868,2.422,2.422,0,0,1,.276-1.363.989.989,0,0,1,.854-.377Z" transform="translate(-1430.983 -4446.342)" fill="#270089"/><path d="M368.776,5017.081h4.969v2.672h-4.969v4.964H366.1v-4.964h-4.962v-2.672H366.1v-4.969h2.671Z" transform="translate(-1635.563 -4405.145)" fill="#270089"/><path d="M371.73,5023.292a3.027,3.027,0,0,0,.8,1.521,2.069,2.069,0,0,0,1.546.65,2.287,2.287,0,0,0,1.6-.565,4.075,4.075,0,0,0,.995-1.371,7.008,7.008,0,0,0,.541-1.735c.109-.616.177-1.165.213-1.646l-.053-.052a4.2,4.2,0,0,1-1.7,1.5,5.345,5.345,0,0,1-2.247.448,5.219,5.219,0,0,1-2.2-.484,5.43,5.43,0,0,1-1.822-1.312,5.031,5.031,0,0,1-1.024-1.819,6.816,6.816,0,0,1-.323-2.072,7.035,7.035,0,0,1,.434-2.5,5.9,5.9,0,0,1,3.183-3.387,6.107,6.107,0,0,1,2.5-.5,6.224,6.224,0,0,1,3.271.787,6.076,6.076,0,0,1,2.07,2.071,8.652,8.652,0,0,1,1.075,2.906,18.06,18.06,0,0,1,.3,3.273,14.475,14.475,0,0,1-.376,3.232,9.368,9.368,0,0,1-1.2,2.943,6.709,6.709,0,0,1-2.121,2.135,6.47,6.47,0,0,1-6.988-.438,5.279,5.279,0,0,1-1.846-3.579Zm2.545-3.924a2.78,2.78,0,0,0,1.237-.26,2.5,2.5,0,0,0,.888-.711,3.015,3.015,0,0,0,.522-1.038,4.181,4.181,0,0,0,.172-1.233,3.982,3.982,0,0,0-.182-1.186,3.287,3.287,0,0,0-.553-1.046,2.614,2.614,0,0,0-.886-.736,2.5,2.5,0,0,0-1.2-.273,2.249,2.249,0,0,0-1.135.273,2.732,2.732,0,0,0-.835.72,3.08,3.08,0,0,0-.522,1.025,3.927,3.927,0,0,0-.18,1.172,4.6,4.6,0,0,0,.165,1.214,3.379,3.379,0,0,0,.488,1.048,2.493,2.493,0,0,0,.837.748,2.342,2.342,0,0,0,1.182.283" transform="translate(-1625.69 -4408.21)" fill="#270089"/><path d="M386.927,5013.15a12.356,12.356,0,0,0-2.436,2.948,21.367,21.367,0,0,0-1.786,3.717,24.746,24.746,0,0,0-1.094,4,22.021,22.021,0,0,0-.4,3.767h-3.795a23.876,23.876,0,0,1,1.837-7.524,26.754,26.754,0,0,1,4.028-6.651H375v-3.3h11.93Z" transform="translate(-1615.801 -4408.005)" fill="#270089"/><path d="M390.044,5027.578H386.5v-11.331H382.1v-2.672a8.441,8.441,0,0,0,1.786-.139,4.752,4.752,0,0,0,1.56-.574,3.527,3.527,0,0,0,1.16-1.085,3.931,3.931,0,0,0,.614-1.672h2.819Z" transform="translate(-1605.663 -4408.005)" fill="#270089"/><path d="M397.467,5014.806a3.026,3.026,0,0,0-.8-1.526,2.074,2.074,0,0,0-1.55-.647,2.285,2.285,0,0,0-1.594.561,4.141,4.141,0,0,0-1,1.375,7.391,7.391,0,0,0-.551,1.735,10.989,10.989,0,0,0-.2,1.647l.051.046a4.214,4.214,0,0,1,1.7-1.5,5.49,5.49,0,0,1,4.443.04,5.44,5.44,0,0,1,1.82,1.308,5.068,5.068,0,0,1,1.024,1.822,6.757,6.757,0,0,1,.325,2.07,6.937,6.937,0,0,1-.449,2.512,6.286,6.286,0,0,1-1.252,2.019,5.833,5.833,0,0,1-1.919,1.363,6.064,6.064,0,0,1-2.494.5,6.233,6.233,0,0,1-3.285-.784,6.091,6.091,0,0,1-2.057-2.072,8.6,8.6,0,0,1-1.072-2.906,17.645,17.645,0,0,1-.3-3.271,14.309,14.309,0,0,1,.376-3.234,9.375,9.375,0,0,1,1.2-2.947,6.78,6.78,0,0,1,2.121-2.132,6.467,6.467,0,0,1,6.988.438,5.257,5.257,0,0,1,1.849,3.584Zm-2.545,3.917a2.782,2.782,0,0,0-1.247.259,2.531,2.531,0,0,0-.873.714,3.194,3.194,0,0,0-.527,1.035,4.39,4.39,0,0,0-.172,1.238,3.786,3.786,0,0,0,.187,1.181,3.273,3.273,0,0,0,.551,1.052,2.749,2.749,0,0,0,.883.736,2.538,2.538,0,0,0,1.2.275,2.316,2.316,0,0,0,1.126-.275,2.768,2.768,0,0,0,.844-.725,3.19,3.19,0,0,0,.526-1.024,4.081,4.081,0,0,0,.175-1.174,4.489,4.489,0,0,0-.165-1.208,3.409,3.409,0,0,0-.483-1.051,2.593,2.593,0,0,0-.837-.75,2.417,2.417,0,0,0-1.187-.283" transform="translate(-1596.815 -4408.209)" fill="#270089"/><path d="M407.055,5013.027h-7.216l-.7,3.969.051.046a4.474,4.474,0,0,1,1.543-1.033,5.833,5.833,0,0,1,4.173.16,5.1,5.1,0,0,1,1.681,1.273,5.531,5.531,0,0,1,1.048,1.887,7.151,7.151,0,0,1,.364,2.309,6.047,6.047,0,0,1-.524,2.507,6.356,6.356,0,0,1-3.467,3.332,6.319,6.319,0,0,1-2.5.451,8.389,8.389,0,0,1-2.434-.35,6.287,6.287,0,0,1-2.062-1.051,5.242,5.242,0,0,1-1.436-1.729,5.427,5.427,0,0,1-.558-2.412h3.545a2.887,2.887,0,0,0,.912,1.9,3,3,0,0,0,3.205.448,3,3,0,0,0,.949-.747,3.555,3.555,0,0,0,.614-1.087,3.966,3.966,0,0,0,.211-1.26,4.081,4.081,0,0,0-.2-1.276,2.969,2.969,0,0,0-.6-1.046,2.728,2.728,0,0,0-.961-.7,2.992,2.992,0,0,0-1.259-.252,3.139,3.139,0,0,0-1.548.336,3.649,3.649,0,0,0-1.126,1.059h-3.191l1.72-9.657h9.759Z" transform="translate(-1587.234 -4408.005)" fill="#270089"/><path d="M405.47,5023.292a3.028,3.028,0,0,0,.8,1.521,2.075,2.075,0,0,0,1.548.65,2.285,2.285,0,0,0,1.6-.565,4.076,4.076,0,0,0,.995-1.371,7.008,7.008,0,0,0,.541-1.735c.109-.616.177-1.165.213-1.646l-.053-.052a4.183,4.183,0,0,1-1.7,1.5,5.338,5.338,0,0,1-2.247.448,5.219,5.219,0,0,1-2.2-.484,5.42,5.42,0,0,1-1.82-1.312,5.072,5.072,0,0,1-1.026-1.819,6.814,6.814,0,0,1-.323-2.072,7.035,7.035,0,0,1,.434-2.5,5.912,5.912,0,0,1,3.186-3.387,6.1,6.1,0,0,1,2.494-.5,6.224,6.224,0,0,1,3.271.787,6.062,6.062,0,0,1,2.072,2.071,8.647,8.647,0,0,1,1.072,2.906,18.062,18.062,0,0,1,.3,3.273,14.336,14.336,0,0,1-.379,3.232,9.253,9.253,0,0,1-1.2,2.943,6.684,6.684,0,0,1-2.121,2.135,6.47,6.47,0,0,1-6.988-.438,5.28,5.28,0,0,1-1.846-3.579Zm2.548-3.924a2.776,2.776,0,0,0,1.235-.26,2.5,2.5,0,0,0,.888-.711,3.015,3.015,0,0,0,.522-1.038,4.182,4.182,0,0,0,.175-1.233,3.983,3.983,0,0,0-.184-1.186,3.331,3.331,0,0,0-.551-1.046,2.646,2.646,0,0,0-.888-.736,2.5,2.5,0,0,0-1.2-.273,2.252,2.252,0,0,0-1.138.273,2.724,2.724,0,0,0-.832.72,3.084,3.084,0,0,0-.524,1.025,3.925,3.925,0,0,0-.18,1.172,4.6,4.6,0,0,0,.165,1.214,3.379,3.379,0,0,0,.488,1.048,2.492,2.492,0,0,0,.837.748,2.345,2.345,0,0,0,1.184.283" transform="translate(-1577.565 -4408.21)" fill="#270089"/><path d="M413.763,5017.375a6.751,6.751,0,0,0,1.225,0,3.92,3.92,0,0,0,1.208-.284,2.393,2.393,0,0,0,.924-.688,1.86,1.86,0,0,0,.359-1.2,2.057,2.057,0,0,0-.747-1.718,2.651,2.651,0,0,0-1.72-.6,2.416,2.416,0,0,0-2.033.885,3.414,3.414,0,0,0-.662,2.235h-3.37a7.361,7.361,0,0,1,.488-2.458,5.545,5.545,0,0,1,1.223-1.912,5.461,5.461,0,0,1,1.883-1.237,6.617,6.617,0,0,1,2.448-.435,7.329,7.329,0,0,1,2.1.313,5.983,5.983,0,0,1,1.885.936,5.076,5.076,0,0,1,1.356,1.523,4.009,4.009,0,0,1,.527,2.072,4.147,4.147,0,0,1-.614,2.231,3.04,3.04,0,0,1-1.832,1.338v.051a3.76,3.76,0,0,1,2.271,1.409,4.1,4.1,0,0,1,.82,2.558,5.411,5.411,0,0,1-.534,2.445,5.331,5.331,0,0,1-1.436,1.8,6.39,6.39,0,0,1-2.072,1.111,7.79,7.79,0,0,1-2.443.389,7.952,7.952,0,0,1-2.684-.428,5.446,5.446,0,0,1-2.058-1.246,5.532,5.532,0,0,1-1.313-2.01,7.041,7.041,0,0,1-.437-2.679h3.37a4.989,4.989,0,0,0,.223,1.346,3.243,3.243,0,0,0,.575,1.083,2.72,2.72,0,0,0,.937.737,3.008,3.008,0,0,0,1.334.274,2.9,2.9,0,0,0,2.021-.747,2.569,2.569,0,0,0,.827-2,2.533,2.533,0,0,0-.391-1.522,2.26,2.26,0,0,0-.985-.764,4.213,4.213,0,0,0-1.308-.273c-.476-.027-.927-.037-1.364-.037Z" transform="translate(-1567.985 -4408.21)" fill="#270089"/><path d="M420.51,5017.375a6.75,6.75,0,0,0,1.225,0,3.9,3.9,0,0,0,1.208-.284,2.393,2.393,0,0,0,.924-.688,1.847,1.847,0,0,0,.362-1.2,2.064,2.064,0,0,0-.747-1.718,2.661,2.661,0,0,0-1.72-.6,2.413,2.413,0,0,0-2.033.885,3.415,3.415,0,0,0-.665,2.235H415.7a7.3,7.3,0,0,1,.485-2.458,5.582,5.582,0,0,1,1.223-1.912,5.46,5.46,0,0,1,1.883-1.237,6.617,6.617,0,0,1,2.448-.435,7.33,7.33,0,0,1,2.1.313,5.983,5.983,0,0,1,1.885.936,5.078,5.078,0,0,1,1.356,1.523,3.986,3.986,0,0,1,.526,2.072,4.125,4.125,0,0,1-.614,2.231,3.04,3.04,0,0,1-1.832,1.338v.051a3.766,3.766,0,0,1,2.274,1.409,4.113,4.113,0,0,1,.818,2.558,5.411,5.411,0,0,1-.534,2.445,5.354,5.354,0,0,1-1.434,1.8,6.426,6.426,0,0,1-2.075,1.111,7.776,7.776,0,0,1-2.441.389,7.967,7.967,0,0,1-2.686-.428,5.448,5.448,0,0,1-2.058-1.246,5.563,5.563,0,0,1-1.313-2.01,6.993,6.993,0,0,1-.434-2.679h3.368a4.991,4.991,0,0,0,.223,1.346,3.249,3.249,0,0,0,.578,1.083,2.688,2.688,0,0,0,.934.737,3.009,3.009,0,0,0,1.335.274,2.9,2.9,0,0,0,2.021-.747,2.561,2.561,0,0,0,.827-2,2.534,2.534,0,0,0-.391-1.522,2.261,2.261,0,0,0-.985-.764,4.2,4.2,0,0,0-1.308-.273c-.476-.027-.927-.037-1.364-.037Z" transform="translate(-1558.357 -4408.21)" fill="#270089"/><path d="M422.05,5018.973a15.37,15.37,0,0,1,.507-4.284,7.764,7.764,0,0,1,1.385-2.781,5.026,5.026,0,0,1,2.033-1.5,6.785,6.785,0,0,1,2.463-.449,6.859,6.859,0,0,1,2.468.449,5.048,5.048,0,0,1,2.062,1.5,7.614,7.614,0,0,1,1.4,2.781,15.353,15.353,0,0,1,.512,4.284,15.768,15.768,0,0,1-.512,4.368,7.858,7.858,0,0,1-1.4,2.819,4.921,4.921,0,0,1-2.062,1.521,6.879,6.879,0,0,1-2.468.448,6.805,6.805,0,0,1-2.463-.448,4.9,4.9,0,0,1-2.033-1.521,8.015,8.015,0,0,1-1.385-2.819,15.787,15.787,0,0,1-.507-4.368m3.54,0q0,.746.051,1.8a9.631,9.631,0,0,0,.311,2.051,4.386,4.386,0,0,0,.837,1.684,2,2,0,0,0,1.65.7,2.079,2.079,0,0,0,1.672-.7,4.258,4.258,0,0,0,.861-1.684,10.12,10.12,0,0,0,.313-2.051c.029-.706.046-1.308.046-1.8,0-.3,0-.66-.012-1.087a11.663,11.663,0,0,0-.1-1.308,12.556,12.556,0,0,0-.248-1.339,4.17,4.17,0,0,0-.488-1.183,2.663,2.663,0,0,0-.823-.852,2.209,2.209,0,0,0-1.223-.32,2.156,2.156,0,0,0-1.2.32,2.523,2.523,0,0,0-.808.852,4.478,4.478,0,0,0-.488,1.183,9.062,9.062,0,0,0-.25,1.339c-.051.446-.08.884-.087,1.308s-.015.785-.015,1.087" transform="translate(-1548.687 -4408.21)" fill="#270089"/><path d="M428.8,5018.973a15.357,15.357,0,0,1,.51-4.284,7.723,7.723,0,0,1,1.385-2.781,5.026,5.026,0,0,1,2.033-1.5,6.785,6.785,0,0,1,2.463-.449,6.868,6.868,0,0,1,2.468.449,5.064,5.064,0,0,1,2.062,1.5,7.612,7.612,0,0,1,1.4,2.781,15.348,15.348,0,0,1,.512,4.284,15.763,15.763,0,0,1-.512,4.368,7.856,7.856,0,0,1-1.4,2.819,4.937,4.937,0,0,1-2.062,1.521,6.888,6.888,0,0,1-2.468.448,6.805,6.805,0,0,1-2.463-.448,4.9,4.9,0,0,1-2.033-1.521,7.972,7.972,0,0,1-1.385-2.819,15.773,15.773,0,0,1-.51-4.368m3.542,0q0,.746.051,1.8a9.623,9.623,0,0,0,.311,2.051,4.415,4.415,0,0,0,.835,1.684,2.01,2.01,0,0,0,1.652.7,2.073,2.073,0,0,0,1.669-.7,4.2,4.2,0,0,0,.861-1.684,9.961,9.961,0,0,0,.315-2.051c.029-.706.046-1.308.046-1.8,0-.3,0-.66-.015-1.087a11.649,11.649,0,0,0-.1-1.308,11.981,11.981,0,0,0-.25-1.339,4.1,4.1,0,0,0-.485-1.183,2.714,2.714,0,0,0-.823-.852,2.209,2.209,0,0,0-1.223-.32,2.156,2.156,0,0,0-1.2.32,2.5,2.5,0,0,0-.808.852,4.474,4.474,0,0,0-.488,1.183,9.053,9.053,0,0,0-.252,1.339c-.048.446-.078.884-.085,1.308s-.015.785-.015,1.087" transform="translate(-1539.063 -4408.21)" fill="#270089"/><path d="M435.545,5018.973a15.357,15.357,0,0,1,.51-4.284,7.723,7.723,0,0,1,1.385-2.781,5.01,5.01,0,0,1,2.033-1.5,6.785,6.785,0,0,1,2.463-.449,6.869,6.869,0,0,1,2.468.449,5.064,5.064,0,0,1,2.062,1.5,7.616,7.616,0,0,1,1.4,2.781,15.353,15.353,0,0,1,.512,4.284,15.768,15.768,0,0,1-.512,4.368,7.86,7.86,0,0,1-1.4,2.819,4.937,4.937,0,0,1-2.062,1.521,6.889,6.889,0,0,1-2.468.448,6.805,6.805,0,0,1-2.463-.448,4.885,4.885,0,0,1-2.033-1.521,7.972,7.972,0,0,1-1.385-2.819,15.773,15.773,0,0,1-.51-4.368m3.542,0q0,.746.051,1.8a9.631,9.631,0,0,0,.311,2.051,4.384,4.384,0,0,0,.835,1.684,2.01,2.01,0,0,0,1.652.7,2.074,2.074,0,0,0,1.669-.7,4.2,4.2,0,0,0,.861-1.684,9.789,9.789,0,0,0,.313-2.051q.047-1.059.048-1.8c0-.3,0-.66-.015-1.087a12.287,12.287,0,0,0-.1-1.308,11.981,11.981,0,0,0-.25-1.339,4.17,4.17,0,0,0-.488-1.183,2.681,2.681,0,0,0-.82-.852,2.209,2.209,0,0,0-1.223-.32,2.156,2.156,0,0,0-1.2.32,2.5,2.5,0,0,0-.808.852,4.474,4.474,0,0,0-.488,1.183,9.069,9.069,0,0,0-.252,1.339c-.048.446-.078.884-.087,1.308s-.012.785-.012,1.087" transform="translate(-1529.438 -4408.21)" fill="#270089"/><rect width="31.113" height="31.113" transform="translate(-1113.59 657.685)" fill="#270089"/><path d="M431.141,5041.4h3.249v10.428h-3.249Zm1.626-5.188a1.882,1.882,0,1,1-1.883,1.881,1.88,1.88,0,0,1,1.883-1.881" transform="translate(-1536.086 -4370.772)" fill="#fff"/><path d="M433.167,5038.5h3.108v1.424h.046a3.4,3.4,0,0,1,3.067-1.685c3.283,0,3.89,2.157,3.89,4.968v5.721h-3.242v-5.07c0-1.209-.024-2.767-1.684-2.767-1.689,0-1.943,1.317-1.943,2.679v5.158h-3.242Z" transform="translate(-1532.83 -4367.878)" fill="#fff"/><rect width="31.113" height="31.113" transform="translate(-1215.337 657.685)" fill="#270089"/><path d="M401.694,5036.262H391.14a2.4,2.4,0,0,0-2.4,2.4v10.556a2.4,2.4,0,0,0,2.4,2.4h10.555a2.4,2.4,0,0,0,2.4-2.4v-10.556a2.4,2.4,0,0,0-2.4-2.4m-1.99,2.117a.429.429,0,0,1,.427-.429h1.856a.431.431,0,0,1,.429.429v1.854a.431.431,0,0,1-.429.431h-1.856a.429.429,0,0,1-.427-.431Zm-6.117,4.453a3.038,3.038,0,0,1,5.661,0,3,3,0,0,1,.211,1.105,3.041,3.041,0,1,1-6.083,0,2.949,2.949,0,0,1,.211-1.105m8.883,6.384a.777.777,0,0,1-.776.773H391.14a.771.771,0,0,1-.772-.773v-6.384h1.514a4.757,4.757,0,0,0-.131,1.105,4.667,4.667,0,1,0,9.2-1.105h1.519Z" transform="translate(-1596.199 -4370.697)" fill="#fff" fill-rule="evenodd"/><path d="M444.564,5033.015v31.114H413.449v-31.114h31.116Z" transform="translate(-1560.955 -4375.328)" fill="#270089"/><path d="M421.734,5047.5a3.548,3.548,0,0,1-3.293-2.456,3.514,3.514,0,0,0,1.516-.044.527.527,0,0,0,.051-.023,3.535,3.535,0,0,1-2.3-1.624,3.413,3.413,0,0,1-.519-1.88,3.462,3.462,0,0,0,1.575.427,3.561,3.561,0,0,1-1.456-2.145,3.5,3.5,0,0,1,.379-2.562,10.124,10.124,0,0,0,7.3,3.7c-.022-.139-.044-.262-.058-.387a3.54,3.54,0,0,1,6.015-2.929.175.175,0,0,0,.187.06,7.157,7.157,0,0,0,2.06-.794l.046-.022.022,0a3.623,3.623,0,0,1-1.514,1.928,6.992,6.992,0,0,0,1.97-.532l.012.017c-.131.178-.265.356-.405.529a6.832,6.832,0,0,1-1.286,1.223.119.119,0,0,0-.058.109,9.726,9.726,0,0,1-.065,1.572,10.366,10.366,0,0,1-.912,3.152,10.235,10.235,0,0,1-1.912,2.788,9.451,9.451,0,0,1-4.862,2.707,10.271,10.271,0,0,1-1.97.235,10,10,0,0,1-5.661-1.519.726.726,0,0,1-.082-.056,7.118,7.118,0,0,0,3.538-.488,6.961,6.961,0,0,0,1.684-.979" transform="translate(-1556.586 -4370.302)" fill="#fff" fill-rule="evenodd"/><rect width="31.116" height="31.113" transform="translate(-1181.424 657.685)" fill="#270089"/><path d="M421.013,5049.7v.121c-.184.368-1.046.709-2.456.951-.121,0-.184.214-.277.584a1.85,1.85,0,0,1-.092.431c-.031.155-.124.184-.274.184h-.032a2.2,2.2,0,0,1-.4-.028,5.231,5.231,0,0,0-1.075-.093c-.214,0-.522.029-.8.029a3.823,3.823,0,0,0-1.439.77,4.323,4.323,0,0,1-2.582,1.012h-.243a4.57,4.57,0,0,1-2.582-1.012,3.637,3.637,0,0,0-1.444-.77c-.214,0-.522-.029-.735-.029a3.24,3.24,0,0,0-1.077.121c-.182,0-.335.063-.427.063a.289.289,0,0,1-.279-.247c-.061-.122-.092-.277-.153-.431-.029-.37-.121-.584-.214-.584-1.475-.242-2.3-.583-2.455-.951a.178.178,0,0,1-.032-.121.263.263,0,0,1,.184-.247,4.994,4.994,0,0,0,2.977-1.782,5.606,5.606,0,0,0,1.043-1.6,1.873,1.873,0,0,0,.153-.554.465.465,0,0,0-.061-.276,1.755,1.755,0,0,0-1.228-.765c-.092-.031-.184-.093-.216-.093-.366-.123-.98-.463-.89-.829.032-.338.463-.521.8-.521a.568.568,0,0,1,.216.028,2.394,2.394,0,0,0,.954.246,1.024,1.024,0,0,0,.551-.15,3.356,3.356,0,0,0-.029-.556c0-.52-.063-1.136-.063-1.688a6.829,6.829,0,0,1,.277-2.209,5.069,5.069,0,0,1,4.7-2.979h.369a4.966,4.966,0,0,1,4.634,2.979,9.37,9.37,0,0,1,.247,3.9v.064c0,.183-.061.3-.061.491a1.124,1.124,0,0,0,.519.15,2.162,2.162,0,0,0,.9-.246,1.589,1.589,0,0,1,.335-.028,1.137,1.137,0,0,1,.308.028.7.7,0,0,1,.522.522c0,.187-.184.521-.891.8a.925.925,0,0,0-.274.093c-.371.09-1.014.338-1.17.765-.153.219-.092.492.092.83.063.152,1.259,2.95,3.991,3.378a.207.207,0,0,1,.184.247" transform="translate(-1577.361 -4371.453)" fill="#fff"/><path d="M327.128,5046.318q-.069.237-.131.511a2.664,2.664,0,0,0-.058.509.746.746,0,0,0,.095.395.338.338,0,0,0,.311.155,1.883,1.883,0,0,0,1.009-.324,3.029,3.029,0,0,0,.905-.9,5.38,5.38,0,0,0,.641-1.39,6.495,6.495,0,0,0-.25-4.269,5.371,5.371,0,0,0-1.366-1.832,5.912,5.912,0,0,0-2.045-1.128,8.227,8.227,0,0,0-2.531-.381,6.947,6.947,0,0,0-2.783.536,6.205,6.205,0,0,0-2.116,1.476,6.564,6.564,0,0,0-1.354,2.231,8.1,8.1,0,0,0-.476,2.795,7.365,7.365,0,0,0,.524,2.838,6.336,6.336,0,0,0,3.659,3.607,8.251,8.251,0,0,0,5.67-.015,6.266,6.266,0,0,0,2.269-1.441h2a8.255,8.255,0,0,1-3.113,2.854,8.788,8.788,0,0,1-4.139,1,9.406,9.406,0,0,1-3.564-.677,9.257,9.257,0,0,1-2.912-1.871,8.524,8.524,0,0,1-1.96-2.817,8.827,8.827,0,0,1,1.948-9.851,9.242,9.242,0,0,1,2.875-1.878,8.9,8.9,0,0,1,3.5-.691,9.3,9.3,0,0,1,3.113.526,8.458,8.458,0,0,1,2.64,1.463,7.143,7.143,0,0,1,1.829,2.278,6.456,6.456,0,0,1,.689,2.982,6.916,6.916,0,0,1-.655,3.137,7.15,7.15,0,0,1-1.567,2.143,6.457,6.457,0,0,1-1.856,1.224,4.232,4.232,0,0,1-1.507.395,1.875,1.875,0,0,1-1.225-.38,1.37,1.37,0,0,1-.512-.98h-.046a2.621,2.621,0,0,1-1.119,1.048,3.315,3.315,0,0,1-2.89.013,3.887,3.887,0,0,1-1.186-.877,4.286,4.286,0,0,1-.808-1.3,4.138,4.138,0,0,1-.3-1.568,6.9,6.9,0,0,1,.366-2.212,6.458,6.458,0,0,1,1.046-1.951,5.366,5.366,0,0,1,1.63-1.374,4.33,4.33,0,0,1,2.138-.525,3.755,3.755,0,0,1,1.567.368,2.383,2.383,0,0,1,1.213,1.3l.381-1.289h1.948Zm-6.369-.762a2.217,2.217,0,0,0,.512,1.534,1.69,1.69,0,0,0,1.342.582,2.173,2.173,0,0,0,1.177-.335,3.462,3.462,0,0,0,.927-.84,4.109,4.109,0,0,0,.82-2.414,2.018,2.018,0,0,0-.536-1.45,1.708,1.708,0,0,0-1.293-.571,2.3,2.3,0,0,0-1.189.321,3.181,3.181,0,0,0-.939.832,3.87,3.87,0,0,0-.607,1.128,3.676,3.676,0,0,0-.214,1.213" transform="translate(-1701.81 -4371.409)" fill="#270089"/><path d="M326.766,5047.507a3.1,3.1,0,0,0,.311,1.449,2.7,2.7,0,0,0,.82.963,3.632,3.632,0,0,0,1.189.549,5.647,5.647,0,0,0,1.436.176,7.387,7.387,0,0,0,1.07-.082,3.858,3.858,0,0,0,1.07-.322,2.279,2.279,0,0,0,.83-.655,1.622,1.622,0,0,0,.335-1.056,1.481,1.481,0,0,0-.439-1.116,3.649,3.649,0,0,0-1.153-.726,9.3,9.3,0,0,0-1.616-.5c-.6-.136-1.213-.291-1.832-.463a16.667,16.667,0,0,1-1.854-.585,6.255,6.255,0,0,1-1.618-.892,4.25,4.25,0,0,1-1.15-1.353,4.129,4.129,0,0,1-.442-2,4.428,4.428,0,0,1,.56-2.271,5.026,5.026,0,0,1,1.461-1.6,6.385,6.385,0,0,1,2.045-.951,8.689,8.689,0,0,1,2.281-.311,10.931,10.931,0,0,1,2.555.3,6.393,6.393,0,0,1,2.176.964,4.928,4.928,0,0,1,1.512,1.7,5.264,5.264,0,0,1,.556,2.509h-3.613a2.984,2.984,0,0,0-.32-1.259,2.087,2.087,0,0,0-.726-.787,3.111,3.111,0,0,0-1.048-.4,6.4,6.4,0,0,0-1.259-.118,4.213,4.213,0,0,0-.9.1,2.427,2.427,0,0,0-.823.329,1.994,1.994,0,0,0-.6.606,1.605,1.605,0,0,0-.24.892,1.552,1.552,0,0,0,.189.808,1.658,1.658,0,0,0,.75.561,11.466,11.466,0,0,0,1.546.523c.658.181,1.519.409,2.579.676.206.051.478.116.808.2a9.121,9.121,0,0,1,1.06.359,7.035,7.035,0,0,1,1.116.581,4.933,4.933,0,0,1,1.024.882,4.126,4.126,0,0,1,.745,1.247,4.512,4.512,0,0,1,.286,1.675,5.2,5.2,0,0,1-.451,2.163,4.732,4.732,0,0,1-1.342,1.724,6.6,6.6,0,0,1-2.213,1.14,10.09,10.09,0,0,1-3.055.417,10.47,10.47,0,0,1-2.72-.356,6.839,6.839,0,0,1-2.317-1.094,5.331,5.331,0,0,1-2.189-4.586Z" transform="translate(-1689.75 -4371.409)" fill="#270089"/><path d="M330.687,5035.929h3.732v6.516h6.869v-6.516h3.732V5052.9h-3.732v-7.32h-6.869v7.32h-3.732Z" transform="translate(-1679.004 -4371.172)" fill="#270089"/><path d="M349.387,5047.554a11.231,11.231,0,0,1-.07,1.188,6.731,6.731,0,0,1-.277,1.283,4.916,4.916,0,0,1-.582,1.224,4.031,4.031,0,0,1-1.009,1.047,5.072,5.072,0,0,1-1.546.738,7.688,7.688,0,0,1-2.174.271,7.191,7.191,0,0,1-2.07-.3,5.061,5.061,0,0,1-1.781-.937,4.659,4.659,0,0,1-1.259-1.628,5.451,5.451,0,0,1-.478-2.392v-1.473h3.378v.763a6.42,6.42,0,0,0,.095,1.141,2.4,2.4,0,0,0,.335.891,1.62,1.62,0,0,0,.653.582,2.343,2.343,0,0,0,1.08.213,2.073,2.073,0,0,0,1.14-.26,1.491,1.491,0,0,0,.582-.676,2.72,2.72,0,0,0,.216-.905c.024-.323.036-.637.036-.937v-11.459h3.732Z" transform="translate(-1668.372 -4371.172)" fill="#270089"/><path d="M350.352,5046.292,344.1,5035.93h4.207l3.97,6.7,3.948-6.7h4.159l-6.3,10.457v6.516h-3.732Z" transform="translate(-1659.873 -4371.171)" fill="#270089"/><path d="M351.829,5044.726a10.684,10.684,0,0,1,.568-3.52,8.548,8.548,0,0,1,1.64-2.853,7.563,7.563,0,0,1,2.616-1.9,9.315,9.315,0,0,1,7.039,0,7.554,7.554,0,0,1,2.613,1.9,8.465,8.465,0,0,1,1.64,2.853,10.621,10.621,0,0,1,.57,3.52,10.269,10.269,0,0,1-.57,3.447,8.254,8.254,0,0,1-1.64,2.8,7.723,7.723,0,0,1-2.613,1.881,9.34,9.34,0,0,1-7.039,0,7.733,7.733,0,0,1-2.616-1.881,8.335,8.335,0,0,1-1.64-2.8,10.33,10.33,0,0,1-.568-3.447m3.732,0a8.55,8.55,0,0,0,.25,2.076,5.514,5.514,0,0,0,.8,1.82,4.039,4.039,0,0,0,1.427,1.3,4.955,4.955,0,0,0,4.278,0,4.079,4.079,0,0,0,1.427-1.3,5.565,5.565,0,0,0,.8-1.82,8.55,8.55,0,0,0,.25-2.076,9.241,9.241,0,0,0-.25-2.165,5.694,5.694,0,0,0-.8-1.866,4.069,4.069,0,0,0-1.427-1.308,4.938,4.938,0,0,0-4.278,0,4.029,4.029,0,0,0-1.427,1.308,5.643,5.643,0,0,0-.8,1.866,9.241,9.241,0,0,0-.25,2.165" transform="translate(-1648.847 -4371.409)" fill="#270089"/><path d="M374.938,5046.482a6.467,6.467,0,0,1-1.927,5.135,9.275,9.275,0,0,1-10.659.015,6.53,6.53,0,0,1-1.893-5.149v-10.554h3.732v10.554a7.892,7.892,0,0,0,.119,1.359,2.85,2.85,0,0,0,.5,1.188,2.64,2.64,0,0,0,1.058.831,4.447,4.447,0,0,0,1.82.309,3.492,3.492,0,0,0,2.754-.893,4.243,4.243,0,0,0,.762-2.794v-10.554h3.734Z" transform="translate(-1636.536 -4371.172)" fill="#270089"/><path d="M373.025,5039.066h-5.091v-3.138h13.908v3.138h-5.086V5052.9h-3.732Z" transform="translate(-1625.875 -4371.172)" fill="#270089"/><path d="M375.205,5035.929h3.729v6.516h6.871v-6.516h3.732V5052.9h-3.732v-7.32h-6.871v7.32h-3.729Z" transform="translate(-1615.504 -4371.172)" fill="#270089"/><path d="M476.139,5050.634h-3.822l-2.409-9.077h-.058l-2.305,9.077H463.7L459.4,5037.1h3.928l2.489,9.2h.053l2.252-9.2h3.613l2.31,9.17h.049l2.49-9.17h3.826Z" transform="translate(-1495.409 -4369.506)" fill="#270089"/><path d="M485.738,5050.634h-3.824l-2.409-9.077h-.058l-2.3,9.077H473.3L469,5037.1h3.928l2.492,9.2h.051l2.252-9.2h3.613l2.31,9.17h.051l2.487-9.17h3.826Z" transform="translate(-1481.721 -4369.506)" fill="#270089"/><path d="M495.337,5050.634h-3.822l-2.412-9.077h-.056l-2.305,9.077h-3.848l-4.3-13.537h3.931l2.49,9.2h.051l2.254-9.2h3.613l2.31,9.17h.049l2.487-9.17h3.829Z" transform="translate(-1468.03 -4369.506)" fill="#270089"/><rect width="4.11" height="4.035" transform="translate(-966.172 677.091)" fill="#270089"/><path d="M495.2,5046.449a2.061,2.061,0,0,0,.247,1.041,2.227,2.227,0,0,0,.641.706,2.886,2.886,0,0,0,.907.4,4.093,4.093,0,0,0,1.06.129,3.952,3.952,0,0,0,.827-.09,2.467,2.467,0,0,0,.781-.292,1.653,1.653,0,0,0,.59-.525,1.343,1.343,0,0,0,.238-.816,1,1,0,0,0-.286-.716,2.649,2.649,0,0,0-.827-.545,7.606,7.606,0,0,0-1.322-.426c-.527-.139-1.121-.271-1.783-.412-.541-.121-1.068-.271-1.582-.433a5.127,5.127,0,0,1-1.376-.657,3.264,3.264,0,0,1-.97-1.019,2.868,2.868,0,0,1-.366-1.512,4.121,4.121,0,0,1,.51-2.131,3.721,3.721,0,0,1,1.349-1.341,5.948,5.948,0,0,1,1.888-.675,11.611,11.611,0,0,1,2.15-.191,10.747,10.747,0,0,1,2.133.2,5.916,5.916,0,0,1,1.846.706,4.383,4.383,0,0,1,1.347,1.333,4.433,4.433,0,0,1,.646,2.077H500.3a1.63,1.63,0,0,0-.81-1.451,3.731,3.731,0,0,0-1.728-.386c-.214,0-.442.021-.684.041a2.032,2.032,0,0,0-.67.173,1.45,1.45,0,0,0-.51.373,1.027,1.027,0,0,0-.211.675,1.059,1.059,0,0,0,.366.818,3.005,3.005,0,0,0,.961.5,13.39,13.39,0,0,0,1.347.353c.51.111,1.024.223,1.546.344.541.121,1.07.272,1.587.443a5.455,5.455,0,0,1,1.376.7,3.39,3.39,0,0,1,.968,1.067,3.19,3.19,0,0,1,.364,1.595,4.323,4.323,0,0,1-.536,2.239,4.436,4.436,0,0,1-1.4,1.453,6.1,6.1,0,0,1-1.975.786,11.262,11.262,0,0,1-2.266.233,11.518,11.518,0,0,1-2.305-.233,5.825,5.825,0,0,1-2.007-.809,4.492,4.492,0,0,1-1.436-1.47,4.621,4.621,0,0,1-.616-2.262Z" transform="translate(-1449.396 -4369.718)" fill="#270089"/><path d="M498.535,5034.969h3.722v7.048h.08a4.386,4.386,0,0,1,1.808-1.7,4.815,4.815,0,0,1,2.147-.543,6.24,6.24,0,0,1,2.446.4,3.525,3.525,0,0,1,1.507,1.129,4.225,4.225,0,0,1,.774,1.757,10.69,10.69,0,0,1,.221,2.278v8.331h-3.717v-7.646a4.646,4.646,0,0,0-.541-2.5,2.044,2.044,0,0,0-1.844-.825,2.57,2.57,0,0,0-2.2.907,5.031,5.031,0,0,0-.679,2.963v7.1h-3.722Z" transform="translate(-1439.591 -4372.541)" fill="#270089"/><path d="M504.958,5055.272a2.521,2.521,0,0,0,.813.111,2.148,2.148,0,0,0,1.007-.23,1,1,0,0,0,.434-.98v-14.041h3.722v14.226a6.3,6.3,0,0,1-.228,1.806,2.683,2.683,0,0,1-.755,1.269,3.245,3.245,0,0,1-1.458.757,8.79,8.79,0,0,1-2.329.253,5.624,5.624,0,0,1-.6-.032,3.5,3.5,0,0,1-.6-.079Zm5.976-17.237h-3.722v-3.066h3.722Z" transform="translate(-1430.43 -4372.541)" fill="#270089"/><path d="M517.164,5052.349a4.759,4.759,0,0,1-1.679,2.342,5.3,5.3,0,0,1-2.987.716c-.383,0-.762-.01-1.14-.042s-.75-.051-1.133-.092v-3.066c.347.04.706.072,1.068.1a8.025,8.025,0,0,0,1.1.041,1.672,1.672,0,0,0,.8-.3,1.568,1.568,0,0,0,.485-.626,1.933,1.933,0,0,0,.158-.8,2.125,2.125,0,0,0-.158-.817l-4.766-12.709h3.979l3.067,9.271h.048l2.963-9.271h3.853Z" transform="translate(-1424.79 -4369.506)" fill="#270089"/><path d="M515.8,5044.088a8.287,8.287,0,0,1,.5-2.946,6.271,6.271,0,0,1,1.417-2.249,6.373,6.373,0,0,1,2.2-1.441,7.659,7.659,0,0,1,2.88-.5,7.772,7.772,0,0,1,2.895.5,6.392,6.392,0,0,1,2.213,1.441,6.261,6.261,0,0,1,1.412,2.249,8.287,8.287,0,0,1,.5,2.946,8.187,8.187,0,0,1-.5,2.945,6.149,6.149,0,0,1-3.625,3.674,7.871,7.871,0,0,1-2.895.512,7.756,7.756,0,0,1-2.88-.512,6.2,6.2,0,0,1-3.615-3.674,8.187,8.187,0,0,1-.5-2.945m3.722,0a8.11,8.11,0,0,0,.155,1.594,4.3,4.3,0,0,0,.541,1.384,2.827,2.827,0,0,0,1,.978,3.044,3.044,0,0,0,1.575.37,3.1,3.1,0,0,0,1.584-.37,2.812,2.812,0,0,0,1.024-.978,4.288,4.288,0,0,0,.534-1.384,7.931,7.931,0,0,0,.16-1.594,8.02,8.02,0,0,0-.16-1.595,4.058,4.058,0,0,0-.534-1.39,2.962,2.962,0,0,0-1.024-.98,3.1,3.1,0,0,0-1.584-.371,3.044,3.044,0,0,0-1.575.371,2.981,2.981,0,0,0-1,.98,4.066,4.066,0,0,0-.541,1.39,8.2,8.2,0,0,0-.155,1.595" transform="translate(-1414.968 -4369.718)" fill="#270089"/><path d="M536.079,5050.633h-3.535v-1.876h-.075a4.4,4.4,0,0,1-1.837,1.7,5.269,5.269,0,0,1-2.3.553,6.122,6.122,0,0,1-2.453-.414,3.568,3.568,0,0,1-1.5-1.119,4.243,4.243,0,0,1-.774-1.754,10.828,10.828,0,0,1-.223-2.292V5037.1h3.72v7.646a4.626,4.626,0,0,0,.536,2.5,2.048,2.048,0,0,0,1.849.826,2.581,2.581,0,0,0,2.2-.907,5.026,5.026,0,0,0,.682-2.966v-7.1h3.715Z" transform="translate(-1404.157 -4369.506)" fill="#270089"/><path d="M536.04,5039.48h2.73v2.482h-2.73v6.719a1.262,1.262,0,0,0,1.575,1.564,5.936,5.936,0,0,0,1.155-.1v2.9c-.318.048-.665.09-1.051.111s-.759.02-1.128.02a10.484,10.484,0,0,1-1.633-.122,3.805,3.805,0,0,1-1.364-.465,2.555,2.555,0,0,1-.934-.987,3.528,3.528,0,0,1-.335-1.655v-7.987h-2.257v-2.482h2.257v-4.055h3.715Z" transform="translate(-1394.612 -4371.89)" fill="#270089"/><path d="M535.2,5034.969h3.722v7.048H539a4.4,4.4,0,0,1,1.808-1.7,4.823,4.823,0,0,1,2.147-.543,6.239,6.239,0,0,1,2.446.4,3.532,3.532,0,0,1,1.509,1.129,4.22,4.22,0,0,1,.771,1.757,10.69,10.69,0,0,1,.221,2.278v8.331h-3.717v-7.646a4.648,4.648,0,0,0-.539-2.5,2.048,2.048,0,0,0-1.846-.825,2.573,2.573,0,0,0-2.2.907,5.032,5.032,0,0,0-.679,2.963v7.1H535.2Z" transform="translate(-1387.298 -4372.541)" fill="#270089"/><rect width="4.11" height="4.035" transform="translate(-834.442 677.091)" fill="#270089"/><path d="M546.4,5041.477a4.184,4.184,0,0,1,2.123-3.562,6.106,6.106,0,0,1,1.992-.745,11,11,0,0,1,2.249-.223,14.476,14.476,0,0,1,2.074.143,6.419,6.419,0,0,1,1.91.563,3.72,3.72,0,0,1,1.412,1.171,3.306,3.306,0,0,1,.548,1.978v7.04a14.176,14.176,0,0,0,.107,1.755,3.037,3.037,0,0,0,.369,1.251h-3.773a5.489,5.489,0,0,1-.17-.635,5.654,5.654,0,0,1-.092-.674,4.865,4.865,0,0,1-2.094,1.3,8.259,8.259,0,0,1-2.465.384,6.487,6.487,0,0,1-1.808-.255,4.2,4.2,0,0,1-1.465-.745,3.327,3.327,0,0,1-.983-1.253,4.289,4.289,0,0,1-.354-1.814,4.068,4.068,0,0,1,.393-1.895,3.2,3.2,0,0,1,1.051-1.189,4.5,4.5,0,0,1,1.475-.667c.551-.15,1.116-.262,1.691-.364.58-.08,1.128-.152,1.655-.2a9.519,9.519,0,0,0,1.4-.243,2.391,2.391,0,0,0,.985-.453,1.062,1.062,0,0,0,.369-.878,1.961,1.961,0,0,0-.2-.956,1.581,1.581,0,0,0-.526-.556,2.309,2.309,0,0,0-.76-.262,6.415,6.415,0,0,0-.929-.061,2.838,2.838,0,0,0-1.713.473,2.08,2.08,0,0,0-.747,1.574Zm8.594,2.755a1.69,1.69,0,0,1-.59.322c-.238.08-.49.139-.764.2-.267.039-.553.09-.861.121s-.6.08-.876.141a5.481,5.481,0,0,0-.837.2,2.452,2.452,0,0,0-.7.354,1.7,1.7,0,0,0-.485.572,1.9,1.9,0,0,0-.182.859,1.7,1.7,0,0,0,.182.847,1.392,1.392,0,0,0,.5.525,1.977,1.977,0,0,0,.73.271,3.942,3.942,0,0,0,.869.083,3.3,3.3,0,0,0,1.7-.364,2.483,2.483,0,0,0,.893-.876,2.888,2.888,0,0,0,.354-1.041,8.17,8.17,0,0,0,.065-.837Z" transform="translate(-1371.913 -4369.718)" fill="#270089"/><path d="M556.674,5044.989a3.781,3.781,0,0,0,.917,2.6,3.777,3.777,0,0,0,4.348.262,2.346,2.346,0,0,0,.992-1.188h3.28a6.311,6.311,0,0,1-2.414,3.479,6.894,6.894,0,0,1-3.928,1.08,7.483,7.483,0,0,1-2.883-.527,6.262,6.262,0,0,1-2.176-1.46,6.8,6.8,0,0,1-1.371-2.259,8.259,8.259,0,0,1-.483-2.885,7.815,7.815,0,0,1,.5-2.827,6.514,6.514,0,0,1,1.417-2.257,6.4,6.4,0,0,1,2.181-1.515,7.086,7.086,0,0,1,2.82-.545,6.448,6.448,0,0,1,3.011.667,5.9,5.9,0,0,1,2.111,1.795,7.322,7.322,0,0,1,1.189,2.561,9.59,9.59,0,0,1,.262,3.019Zm6.051-2.361a4.311,4.311,0,0,0-.929-2.15,2.64,2.64,0,0,0-2.031-.725,3.2,3.2,0,0,0-1.478.3,2.663,2.663,0,0,0-.944.748,2.6,2.6,0,0,0-.5.938,4.493,4.493,0,0,0-.17.889Z" transform="translate(-1361.965 -4369.718)" fill="#270089"/><path d="M460.046,5010.866h3.9v6.8h7.182v-6.8h3.9V5028.6h-3.9v-7.647h-7.182v7.647h-3.9Z" transform="translate(-1494.49 -4406.922)" fill="#270089"/><path d="M471.046,5013.769h-3.526v-2.9h3.526Zm-3.526,1.984h3.526V5028.6h-3.526Z" transform="translate(-1483.828 -4406.921)" fill="#270089"/><path d="M470.162,5013.088h3.329v1.75h.051a5.1,5.1,0,0,1,1.674-1.558,4.617,4.617,0,0,1,2.249-.546,5.05,5.05,0,0,1,2.225.49,3.178,3.178,0,0,1,1.529,1.65,5.633,5.633,0,0,1,1.551-1.493,4.189,4.189,0,0,1,2.32-.647,7.019,7.019,0,0,1,1.9.257,3.876,3.876,0,0,1,1.485.794,3.622,3.622,0,0,1,.973,1.436,5.725,5.725,0,0,1,.349,2.118v8.595h-3.531v-7.274c0-.434-.015-.837-.051-1.221a2.457,2.457,0,0,0-.272-.989,1.687,1.687,0,0,0-.662-.675,2.292,2.292,0,0,0-1.179-.253,2.326,2.326,0,0,0-1.2.282,2.166,2.166,0,0,0-.723.748,3.061,3.061,0,0,0-.347,1.048,7.628,7.628,0,0,0-.09,1.182v7.152H478.21v-7.2c0-.364-.01-.736-.024-1.109a3.177,3.177,0,0,0-.211-1.051,1.64,1.64,0,0,0-.621-.767,2.446,2.446,0,0,0-1.279-.282,2.367,2.367,0,0,0-.672.12,2.077,2.077,0,0,0-.781.424,2.492,2.492,0,0,0-.662.889,3.633,3.633,0,0,0-.272,1.533v7.446h-3.526Z" transform="translate(-1480.061 -4404.256)" fill="#270089"/><path d="M479.441,5013.088h3.327v1.75h.053a5.116,5.116,0,0,1,1.672-1.558,4.62,4.62,0,0,1,2.252-.546,5.047,5.047,0,0,1,2.223.49,3.179,3.179,0,0,1,1.529,1.65,5.643,5.643,0,0,1,1.553-1.493,4.184,4.184,0,0,1,2.32-.647,7.013,7.013,0,0,1,1.893.257,3.869,3.869,0,0,1,1.487.794,3.623,3.623,0,0,1,.973,1.436,5.725,5.725,0,0,1,.349,2.118v8.595h-3.53v-7.274c0-.434-.017-.837-.051-1.221a2.5,2.5,0,0,0-.272-.989,1.7,1.7,0,0,0-.662-.675,2.305,2.305,0,0,0-1.179-.253,2.343,2.343,0,0,0-1.2.282,2.138,2.138,0,0,0-.721.748,2.963,2.963,0,0,0-.347,1.048,7.339,7.339,0,0,0-.09,1.182v7.152h-3.528v-7.2c0-.364-.01-.736-.024-1.109a3.18,3.18,0,0,0-.211-1.051,1.67,1.67,0,0,0-.621-.767,2.457,2.457,0,0,0-1.281-.282,2.4,2.4,0,0,0-.672.12,2.094,2.094,0,0,0-.781.424,2.521,2.521,0,0,0-.662.889,3.669,3.669,0,0,0-.272,1.533v7.446h-3.523Z" transform="translate(-1466.826 -4404.256)" fill="#270089"/><path d="M488.847,5017.035a4.033,4.033,0,0,1,.624-2.06,4.161,4.161,0,0,1,1.393-1.312,6.092,6.092,0,0,1,1.885-.706,11.145,11.145,0,0,1,2.14-.222,14.974,14.974,0,0,1,1.96.142,6.017,6.017,0,0,1,1.813.536,3.514,3.514,0,0,1,1.339,1.121,3.077,3.077,0,0,1,.524,1.852v6.691a12.687,12.687,0,0,0,.1,1.665,2.9,2.9,0,0,0,.349,1.19h-3.584a5.151,5.151,0,0,1-.16-.606,5.543,5.543,0,0,1-.087-.626,4.823,4.823,0,0,1-1.985,1.232,7.959,7.959,0,0,1-2.337.352,6.254,6.254,0,0,1-1.715-.229,4.526,4.526,0,0,1-1.39-.706,3.347,3.347,0,0,1-.934-1.2,4.015,4.015,0,0,1-.332-1.716,3.877,3.877,0,0,1,.374-1.8,3.057,3.057,0,0,1,.992-1.128,4.465,4.465,0,0,1,1.4-.626,13.75,13.75,0,0,1,1.6-.343c.546-.08,1.07-.143,1.565-.194a8.558,8.558,0,0,0,1.332-.229,2.5,2.5,0,0,0,.925-.425,1.043,1.043,0,0,0,.349-.837,1.848,1.848,0,0,0-.184-.907,1.323,1.323,0,0,0-.495-.514,1.934,1.934,0,0,0-.721-.262,5.965,5.965,0,0,0-.883-.062,2.753,2.753,0,0,0-1.628.454,1.964,1.964,0,0,0-.706,1.484Zm8.148,2.62a1.8,1.8,0,0,1-.558.3,3.781,3.781,0,0,1-.716.185,6.424,6.424,0,0,1-.823.13c-.286.03-.568.071-.832.125a4.412,4.412,0,0,0-.8.2,2.276,2.276,0,0,0-.655.329,1.551,1.551,0,0,0-.459.544,1.741,1.741,0,0,0-.177.808,1.58,1.58,0,0,0,.177.806,1.308,1.308,0,0,0,.468.5,2.324,2.324,0,0,0,.7.262,5.256,5.256,0,0,0,.823.071,2.976,2.976,0,0,0,1.614-.354,2.235,2.235,0,0,0,.847-.825,2.6,2.6,0,0,0,.335-.989,6.863,6.863,0,0,0,.058-.787Z" transform="translate(-1453.973 -4404.254)" fill="#270089"/><path d="M494.555,5010.866h3.53v6.677h.07a4.252,4.252,0,0,1,1.713-1.613,4.611,4.611,0,0,1,2.038-.527,6.328,6.328,0,0,1,2.324.384,3.6,3.6,0,0,1,1.429,1.07,4.122,4.122,0,0,1,.73,1.674,10.1,10.1,0,0,1,.214,2.169v7.9h-3.526v-7.255a4.439,4.439,0,0,0-.509-2.37,1.936,1.936,0,0,0-1.757-.787,2.412,2.412,0,0,0-2.082.867,4.724,4.724,0,0,0-.645,2.814v6.73h-3.53Z" transform="translate(-1445.268 -4406.921)" fill="#270089"/><path d="M513.438,5021.726c-.048.161-.1.345-.136.527a2.662,2.662,0,0,0-.066.541.769.769,0,0,0,.1.405.347.347,0,0,0,.325.162,1.992,1.992,0,0,0,1.058-.335,3.3,3.3,0,0,0,.944-.938,5.815,5.815,0,0,0,.672-1.461,6.316,6.316,0,0,0,.26-1.837,6.168,6.168,0,0,0-.524-2.62,5.434,5.434,0,0,0-1.427-1.907,6,6,0,0,0-2.14-1.189,8.567,8.567,0,0,0-2.645-.392,7.455,7.455,0,0,0-2.907.552,6.651,6.651,0,0,0-2.21,1.544,6.81,6.81,0,0,0-1.417,2.329,8.416,8.416,0,0,0-.5,2.926,7.618,7.618,0,0,0,.551,2.966,6.632,6.632,0,0,0,3.822,3.772,8.241,8.241,0,0,0,2.96.524,8.124,8.124,0,0,0,2.965-.546,6.512,6.512,0,0,0,2.375-1.493h2.089a8.681,8.681,0,0,1-3.259,2.978,9.143,9.143,0,0,1-4.321,1.036,9.7,9.7,0,0,1-3.727-.706,9.386,9.386,0,0,1-3.043-1.943,9.215,9.215,0,0,1-.015-13.246,9.687,9.687,0,0,1,3-1.955,9.256,9.256,0,0,1,3.652-.729,9.808,9.808,0,0,1,3.259.547,8.651,8.651,0,0,1,2.761,1.532,7.425,7.425,0,0,1,1.91,2.381,6.744,6.744,0,0,1,.723,3.115,7.2,7.2,0,0,1-.687,3.281,7.6,7.6,0,0,1-1.64,2.239,6.686,6.686,0,0,1-1.936,1.279,4.453,4.453,0,0,1-1.577.415,1.984,1.984,0,0,1-1.284-.405,1.422,1.422,0,0,1-.534-1.017h-.046a2.865,2.865,0,0,1-1.169,1.1,3.574,3.574,0,0,1-1.514.343,3.388,3.388,0,0,1-1.507-.343,4.059,4.059,0,0,1-1.24-.909,4.612,4.612,0,0,1-.842-1.351,4.388,4.388,0,0,1-.313-1.644,7.223,7.223,0,0,1,.381-2.311,6.774,6.774,0,0,1,1.094-2.037,5.438,5.438,0,0,1,1.708-1.441,4.453,4.453,0,0,1,2.232-.558,4.014,4.014,0,0,1,1.638.395,2.466,2.466,0,0,1,1.269,1.352l.4-1.341H515Zm-6.658-.8a2.349,2.349,0,0,0,.536,1.612,1.773,1.773,0,0,0,1.4.6,2.374,2.374,0,0,0,1.23-.344,3.624,3.624,0,0,0,.968-.886,4.395,4.395,0,0,0,.859-2.521,2.124,2.124,0,0,0-.563-1.514,1.771,1.771,0,0,0-1.354-.6,2.455,2.455,0,0,0-1.242.343,3.43,3.43,0,0,0-.978.865,4.051,4.051,0,0,0-.636,1.181,3.8,3.8,0,0,0-.223,1.264" transform="translate(-1436.871 -4407.171)" fill="#270089"/><path d="M511.915,5021.755a1.9,1.9,0,0,0,.238.987,1.975,1.975,0,0,0,.607.667,2.4,2.4,0,0,0,.857.384,3.744,3.744,0,0,0,1.007.131,3.474,3.474,0,0,0,.781-.092,2.676,2.676,0,0,0,.747-.262,1.891,1.891,0,0,0,.561-.5,1.314,1.314,0,0,0,.221-.786.981.981,0,0,0-.272-.687,2.523,2.523,0,0,0-.781-.5,8.372,8.372,0,0,0-1.257-.4c-.5-.132-1.058-.266-1.689-.386q-.772-.179-1.5-.422a5.1,5.1,0,0,1-1.305-.615,2.951,2.951,0,0,1-.92-.971,2.71,2.71,0,0,1-.349-1.421,3.936,3.936,0,0,1,.485-2.038,3.729,3.729,0,0,1,1.281-1.26,5.715,5.715,0,0,1,1.786-.647,10.762,10.762,0,0,1,2.038-.192,10.186,10.186,0,0,1,2.026.2,5.583,5.583,0,0,1,1.752.678,4.038,4.038,0,0,1,1.281,1.248,4.307,4.307,0,0,1,.609,1.979h-3.353a1.562,1.562,0,0,0-.772-1.384,3.537,3.537,0,0,0-1.64-.361c-.2,0-.412.02-.645.04a2.043,2.043,0,0,0-.633.162,1.241,1.241,0,0,0-.488.361.974.974,0,0,0-.2.636.938.938,0,0,0,.349.767,2.564,2.564,0,0,0,.9.486,11.279,11.279,0,0,0,1.281.331c.48.1.971.211,1.468.323s1.014.263,1.5.425a4.692,4.692,0,0,1,1.3.664,3.072,3.072,0,0,1,.922,1.008,3.014,3.014,0,0,1,.347,1.514,4.053,4.053,0,0,1-.51,2.118,4.169,4.169,0,0,1-1.33,1.383,5.571,5.571,0,0,1-1.878.745,10.084,10.084,0,0,1-2.147.223,10.4,10.4,0,0,1-2.189-.223,5.676,5.676,0,0,1-1.895-.755,4.372,4.372,0,0,1-1.369-1.412,4.3,4.3,0,0,1-.585-2.14Z" transform="translate(-1425.289 -4404.254)" fill="#270089"/><path d="M521.53,5027.335a4.4,4.4,0,0,1-1.589,2.231,5.078,5.078,0,0,1-2.834.686c-.364,0-.721-.013-1.08-.042s-.716-.051-1.08-.09v-2.9c.33.039.67.068,1.019.1a6.236,6.236,0,0,0,1.046.02,1.34,1.34,0,0,0,.755-.281,1.429,1.429,0,0,0,.461-.585,1.866,1.866,0,0,0,.151-.745,2.02,2.02,0,0,0-.151-.786l-4.527-12.057h3.78l2.909,8.8h.046l2.81-8.8H526.9Z" transform="translate(-1417.96 -4404.046)" fill="#270089"/><rect width="3.897" height="3.824" transform="translate(-891.085 617.852)" fill="#270089"/><path d="M525.015,5021.755a1.9,1.9,0,0,0,.238.987,1.992,1.992,0,0,0,.6.667,2.441,2.441,0,0,0,.857.384,3.762,3.762,0,0,0,1.009.131,3.489,3.489,0,0,0,.781-.092,2.7,2.7,0,0,0,.747-.262,1.952,1.952,0,0,0,.56-.5,1.314,1.314,0,0,0,.221-.786.992.992,0,0,0-.272-.687,2.583,2.583,0,0,0-.781-.5,8.566,8.566,0,0,0-1.257-.4c-.5-.132-1.058-.266-1.689-.386q-.771-.179-1.5-.422a5.154,5.154,0,0,1-1.308-.615,2.969,2.969,0,0,1-.917-.971,2.71,2.71,0,0,1-.349-1.421,3.959,3.959,0,0,1,.483-2.038,3.734,3.734,0,0,1,1.283-1.26,5.7,5.7,0,0,1,1.783-.647,10.782,10.782,0,0,1,2.038-.192,10.208,10.208,0,0,1,2.028.2,5.583,5.583,0,0,1,1.752.678,4.007,4.007,0,0,1,1.279,1.248,4.277,4.277,0,0,1,.611,1.979H529.86a1.556,1.556,0,0,0-.769-1.384,3.537,3.537,0,0,0-1.64-.361c-.2,0-.415.02-.648.04a2.059,2.059,0,0,0-.633.162,1.217,1.217,0,0,0-.485.361.974.974,0,0,0-.2.636.938.938,0,0,0,.349.767,2.543,2.543,0,0,0,.9.486,11.092,11.092,0,0,0,1.279.331c.483.1.97.211,1.47.323s1.014.263,1.5.425a4.627,4.627,0,0,1,1.3.664,3.057,3.057,0,0,1,.924,1.008,3.016,3.016,0,0,1,.347,1.514,4.075,4.075,0,0,1-.51,2.118,4.171,4.171,0,0,1-1.33,1.383,5.574,5.574,0,0,1-1.878.745,10.091,10.091,0,0,1-2.15.223,10.422,10.422,0,0,1-2.189-.223,5.679,5.679,0,0,1-1.9-.755,4.4,4.4,0,0,1-1.368-1.412,4.3,4.3,0,0,1-.585-2.14Z" transform="translate(-1406.608 -4404.254)" fill="#270089"/><path d="M527.413,5010.866h3.53v6.677h.07a4.244,4.244,0,0,1,1.716-1.613,4.6,4.6,0,0,1,2.036-.527,6.351,6.351,0,0,1,2.327.384,3.607,3.607,0,0,1,1.427,1.07,4.161,4.161,0,0,1,.733,1.674,10.27,10.27,0,0,1,.211,2.169v7.9h-3.526v-7.255a4.44,4.44,0,0,0-.51-2.37,1.931,1.931,0,0,0-1.754-.787,2.414,2.414,0,0,0-2.084.867,4.725,4.725,0,0,0-.645,2.814v6.73h-3.53Z" transform="translate(-1398.401 -4406.921)" fill="#270089"/><path d="M532.738,5030.118a2.35,2.35,0,0,0,.774.093,2.051,2.051,0,0,0,.956-.2c.274-.14.41-.453.41-.926v-13.329h3.53v13.489a6,6,0,0,1-.214,1.715,2.665,2.665,0,0,1-.718,1.211,3.22,3.22,0,0,1-1.383.726,8.972,8.972,0,0,1-2.21.233,5.022,5.022,0,0,1-.568-.032c-.2-.02-.388-.04-.578-.07Zm5.671-16.349h-3.53v-2.9h3.53Z" transform="translate(-1390.805 -4406.921)" fill="#270089"/><rect width="3.899" height="3.824" transform="translate(-849.194 617.852)" fill="#270089"/><path d="M539.352,5017.035a4.034,4.034,0,0,1,.623-2.06,4.162,4.162,0,0,1,1.393-1.312,6.092,6.092,0,0,1,1.885-.706,11.145,11.145,0,0,1,2.14-.222,14.972,14.972,0,0,1,1.96.142,6.016,6.016,0,0,1,1.813.536,3.513,3.513,0,0,1,1.339,1.121,3.077,3.077,0,0,1,.524,1.852v6.691a12.687,12.687,0,0,0,.1,1.665,2.867,2.867,0,0,0,.349,1.19H547.9a5.175,5.175,0,0,1-.16-.606,5.57,5.57,0,0,1-.087-.626,4.816,4.816,0,0,1-1.987,1.232,7.93,7.93,0,0,1-2.334.352,6.253,6.253,0,0,1-1.715-.229,4.525,4.525,0,0,1-1.39-.706,3.345,3.345,0,0,1-.934-1.2,4.013,4.013,0,0,1-.333-1.716,3.876,3.876,0,0,1,.374-1.8,3.057,3.057,0,0,1,.992-1.128,4.464,4.464,0,0,1,1.4-.626,13.736,13.736,0,0,1,1.6-.343c.546-.08,1.07-.143,1.565-.194a8.563,8.563,0,0,0,1.332-.229,2.516,2.516,0,0,0,.924-.425,1.042,1.042,0,0,0,.349-.837,1.848,1.848,0,0,0-.184-.907,1.325,1.325,0,0,0-.495-.514,1.951,1.951,0,0,0-.721-.262,5.965,5.965,0,0,0-.883-.062,2.753,2.753,0,0,0-1.628.454,1.964,1.964,0,0,0-.706,1.484Zm8.148,2.62a1.8,1.8,0,0,1-.558.3,3.78,3.78,0,0,1-.716.185,6.43,6.43,0,0,1-.823.13c-.289.03-.568.071-.832.125a4.414,4.414,0,0,0-.8.2,2.244,2.244,0,0,0-.655.329,1.55,1.55,0,0,0-.459.544,1.743,1.743,0,0,0-.177.808,1.581,1.581,0,0,0,.177.806,1.308,1.308,0,0,0,.468.5,2.323,2.323,0,0,0,.7.262,5.257,5.257,0,0,0,.823.071,2.975,2.975,0,0,0,1.614-.354,2.253,2.253,0,0,0,.847-.825,2.6,2.6,0,0,0,.335-.989,6.867,6.867,0,0,0,.058-.787Z" transform="translate(-1381.936 -4404.254)" fill="#270089"/><path d="M548.326,5020.364a3.582,3.582,0,0,0,.871,2.479,3.543,3.543,0,0,0,4.125.24,2.178,2.178,0,0,0,.944-1.128h3.106a6.031,6.031,0,0,1-2.288,3.31,6.544,6.544,0,0,1-3.727,1.019,7.283,7.283,0,0,1-2.73-.5,5.8,5.8,0,0,1-2.062-1.391,6.312,6.312,0,0,1-1.305-2.138,7.767,7.767,0,0,1-.458-2.734,7.549,7.549,0,0,1,.468-2.684,6.349,6.349,0,0,1,1.342-2.15,6.46,6.46,0,0,1,2.077-1.429,6.729,6.729,0,0,1,2.669-.527,6.079,6.079,0,0,1,2.858.648,5.708,5.708,0,0,1,2,1.694,6.962,6.962,0,0,1,1.131,2.44,9.065,9.065,0,0,1,.245,2.846Zm5.738-2.232a4.067,4.067,0,0,0-.876-2.035,2.5,2.5,0,0,0-1.927-.7,3.146,3.146,0,0,0-1.407.287,2.79,2.79,0,0,0-.9.7,2.646,2.646,0,0,0-.473.91,4.081,4.081,0,0,0-.16.836Z" transform="translate(-1373.599 -4404.254)" fill="#270089"/></g></g></svg>