<svg xmlns="http://www.w3.org/2000/svg" width="239.495" height="277.13" viewBox="0 0 239.495 277.13"><g transform="translate(-810.37 -2469.152)"><path d="M822.764,2469.168s-39.357,157.477,22.2,242.683c0,0,93.729-33.387,185.611,34.43,0,0-45.04-84.333,19.292-185.962,0,0-78.565-92.563-227.1-91.152" transform="translate(0 0)" fill="#270089"/><path d="M889.239,2632.972a40.862,40.862,0,0,1-7.231-.705,21.879,21.879,0,0,1-6.354-2.222,27.44,27.44,0,0,1-6.592-5.588q-.165.624-4.345,3.787a21.568,21.568,0,0,1-9.28,4.085,26.8,26.8,0,0,1-10.485-.233,26.306,26.306,0,0,1-9.775-4.254,23.9,23.9,0,0,1-7.15-8.1,21.405,21.405,0,0,1-2.456-11.571,27.972,27.972,0,0,1,9.017-19.388,28.128,28.128,0,0,1,8.667-5.383,25.684,25.684,0,0,1,9.764-1.85,40.574,40.574,0,0,1,10.122,1.206,23.107,23.107,0,0,1,7.01,3.091,15.9,15.9,0,0,1,4.489,4.548,20.1,20.1,0,0,1,2.444,5.466,27.463,27.463,0,0,1,.956,5.762q.16,2.9.212,5.558t.181,4.933a16.51,16.51,0,0,0,.585,3.763,3.608,3.608,0,0,0,1.466,1.972,6.69,6.69,0,0,0,2.455.887,15.713,15.713,0,0,0,3.207.192q1.762-.059,3.248-.042a6.029,6.029,0,0,1,5.062,2.285,7.589,7.589,0,0,1-.1,9.626,6.035,6.035,0,0,1-5.111,2.174m-43.62-76a7.7,7.7,0,0,1,5.841,2.568,8.494,8.494,0,0,1,2.282,6.051,8.735,8.735,0,0,1-2.415,6.116,7.656,7.656,0,0,1-5.9,2.48,7.87,7.87,0,0,1-5.959-2.61,8.644,8.644,0,0,1-2.319-6.168,8.345,8.345,0,0,1,2.492-6,7.954,7.954,0,0,1,5.974-2.438m20.686,47.808a10.87,10.87,0,0,0-7.405-9.9,13.965,13.965,0,0,0-6.844-.348,20.445,20.445,0,0,0-6.994,2.623,17.1,17.1,0,0,0-5.377,5.029,12.158,12.158,0,0,0-2.15,6.9,6.522,6.522,0,0,0,1.329,3.81,14.439,14.439,0,0,0,3.522,3.482,16.98,16.98,0,0,0,4.709,2.361,10.142,10.142,0,0,0,4.652.481,6.177,6.177,0,0,0,3.58-1.839,7.517,7.517,0,0,0,1.734-4.716,7.775,7.775,0,0,1,1.492-4.014,9.153,9.153,0,0,1,2.844-2.474,9.978,9.978,0,0,1,3.339-1.137,15.253,15.253,0,0,0,1.569-.256m-5.942-43.421a7.893,7.893,0,0,1,5.918,2.609,8.582,8.582,0,0,1,2.36,6.169,8.36,8.36,0,0,1-2.492,6,8.294,8.294,0,0,1-9.215,1.738,7.381,7.381,0,0,1-2.562-1.867,9.89,9.89,0,0,1-1.691-2.718,8.211,8.211,0,0,1-.629-3.333,8.642,8.642,0,0,1,2.454-6.117,7.689,7.689,0,0,1,5.857-2.479" transform="translate(-4.271 -24.72)" fill="#fff"/><path d="M950.9,2544.563a15.515,15.515,0,0,1,4.133,4.936,11.734,11.734,0,0,1,1.316,4.946,9.207,9.207,0,0,1-.908,4.333,7.276,7.276,0,0,1-2.577,2.984,6.1,6.1,0,0,1-3.688.938,7.1,7.1,0,0,1-4.167-1.845,8.744,8.744,0,0,1-4.821,4.252,10.039,10.039,0,0,1-6.3.244,10.636,10.636,0,0,1-5.513-3.935q-2.354-3.038-2.452-8.362a3.314,3.314,0,0,1,.966-2.375,3.524,3.524,0,0,1,2.086-1.112,2.571,2.571,0,0,1,2.066.648,3.632,3.632,0,0,1,.907,2.906,5.968,5.968,0,0,0,.332,1.843,7.637,7.637,0,0,0,.957,1.967,4.772,4.772,0,0,0,1.588,1.465,3.046,3.046,0,0,0,2.148.336,1.665,1.665,0,0,0,1.381-1,3.545,3.545,0,0,0,.137-1.759,10.1,10.1,0,0,0-.565-2.081,17,17,0,0,1-.643-2.042,5.691,5.691,0,0,1-.191-3.993,2.371,2.371,0,0,1,1.9-1.623,2.554,2.554,0,0,1,2.381.5,5.312,5.312,0,0,1,1.269,2.087,19.786,19.786,0,0,1,.751,2.826,12.213,12.213,0,0,0,.831,2.709,3.445,3.445,0,0,0,1.507,1.7,3.3,3.3,0,0,0,2.781-.244,3.666,3.666,0,0,0,1.222-.847,1.832,1.832,0,0,0,.523-1.285,3.005,3.005,0,0,0-.724-1.73,12.94,12.94,0,0,0-2.518-2.336,3.4,3.4,0,0,1-1.582-2.013,2.925,2.925,0,0,1,.613-2.381,3.1,3.1,0,0,1,2.324-1.383,3.378,3.378,0,0,1,2.535.732" transform="translate(-32.525 -21.016)" fill="#fff"/><path d="M911.679,2628.576a14.233,14.233,0,0,0,2-.173,13.461,13.461,0,0,0,2.669-.676q1.373-.494,2.673-1.066a7.318,7.318,0,0,0,2.009-1.231,2.551,2.551,0,0,0,.835-1.2,1.251,1.251,0,0,0-.34-1.1,14.873,14.873,0,0,1-3.723-6.654,16.439,16.439,0,0,1-.157-7.125,19.05,19.05,0,0,1,2.773-6.738,25.067,25.067,0,0,1,11.767-9.654,21.4,21.4,0,0,1,7.922-1.557,14.823,14.823,0,0,1,10.215,3.36,20.17,20.17,0,0,1,5.893,8.516,27.628,27.628,0,0,1,1.645,10.7,24.977,24.977,0,0,1-2.38,10.069q-.242.7.647,1.612a9.36,9.36,0,0,0,2.642,1.75,17.71,17.71,0,0,0,3.7,1.293,15.254,15.254,0,0,0,3.047.464,6.4,6.4,0,0,1,4.828,2.127,7.239,7.239,0,0,1-.108,9.9,6.349,6.349,0,0,1-4.875,2.06,33.124,33.124,0,0,1-6.643-.777,30.318,30.318,0,0,1-6.511-2.185,22.279,22.279,0,0,1-5.594-3.739,12.672,12.672,0,0,1-3.431-4.655,20.136,20.136,0,0,1-4.42-.283,25.43,25.43,0,0,1-4.255-.907,12.187,12.187,0,0,1-3.222,4.778,20.934,20.934,0,0,1-5.837,4.162,29.439,29.439,0,0,1-6.912,2.311,33.307,33.307,0,0,1-7.012.707,6.433,6.433,0,0,1-4.907-2.167,7.027,7.027,0,0,1-1.9-4.95,6.915,6.915,0,0,1,2.049-4.948,6.529,6.529,0,0,1,4.913-2.02m26.734-25.768a14.224,14.224,0,0,0-5.78,2.559,8,8,0,0,0-2.661,3.648,6.5,6.5,0,0,0-.044,3.99,7.549,7.549,0,0,0,2.388,3.549,12.02,12.02,0,0,0,4.865,2.362,15.491,15.491,0,0,0,6.768.152,6.518,6.518,0,0,0,.846-2.22,15.2,15.2,0,0,0,.433-3.869,17.706,17.706,0,0,0-.541-4.193,12.928,12.928,0,0,0-1.409-3.537,5.979,5.979,0,0,0-2.051-2.136,3.774,3.774,0,0,0-2.814-.3" transform="translate(-26.557 -34.411)" fill="#fff"/><path d="M1000.079,2687.972a46.046,46.046,0,0,1,6.316-5.056,33.483,33.483,0,0,1,6.926-3.525,27.659,27.659,0,0,1,15.664-1.041,2.945,2.945,0,0,1,2.1,1.588,3.47,3.47,0,0,1,.208,2.389,3.64,3.64,0,0,1-1.431,2.018,3.329,3.329,0,0,1-2.744.479,18.031,18.031,0,0,0-6.217-.381,22.077,22.077,0,0,0-5.808,1.5,26.978,26.978,0,0,0-5.354,2.953,39.932,39.932,0,0,0-4.858,4.056,2.941,2.941,0,0,1-2.514.872,3.863,3.863,0,0,1-2.218-1.119,3.685,3.685,0,0,1-1.032-2.242,3.064,3.064,0,0,1,.967-2.495" transform="translate(-53.124 -58.696)" fill="#fff"/><path d="M1011.907,2638.913a18.659,18.659,0,0,1-5.145,1.744,60.063,60.063,0,0,1-7.056,1.1q-3.643.352-7.126.431t-6.066.051a5.923,5.923,0,0,1-5.022-2.285,7.726,7.726,0,0,1,.1-9.625,5.927,5.927,0,0,1,5.072-2.176q2.974.033,5.829.1t3.012.072q-.851-1.1-1.817-5.615a30.224,30.224,0,0,1-.566-9.045,29.307,29.307,0,0,1,2.13-8.7q1.728-4.167,2.519-4.865,1.8.414.465.437a23.983,23.983,0,0,1-2.738-.109,9.542,9.542,0,0,1-2.771-.7,3.323,3.323,0,0,1-1.893-2.211,8.628,8.628,0,0,1-.09-2.544,12.124,12.124,0,0,1,.66-3.007,11.028,11.028,0,0,1,1.518-2.838,3.213,3.213,0,0,1,2.792-1.34q9.464.417,17.362,1.168t14.26,2a66.773,66.773,0,0,1,11.08,3.057,27.125,27.125,0,0,1,7.894,4.508,25.21,25.21,0,0,1,6.136,7.853,22.365,22.365,0,0,1,2.253,8.595,23.033,23.033,0,0,1-1.19,8.6,26.661,26.661,0,0,1-4.154,7.782,27.012,27.012,0,0,1-6.758,6.186,28.112,28.112,0,0,1-8.924,3.777,32.567,32.567,0,0,1-10.572.627,35.179,35.179,0,0,1-11.2-3.019m-2.286-12.86a14.3,14.3,0,0,0,4.68-2.14,13.241,13.241,0,0,0,3.519-3.4,10.143,10.143,0,0,0,1.647-3.9,9.461,9.461,0,0,0-.036-3.836,7.655,7.655,0,0,0-1.492-3.147,6.461,6.461,0,0,0-2.717-1.985,6.184,6.184,0,0,0-4.815.181,7.293,7.293,0,0,0-3.64,3.6,11.684,11.684,0,0,0-.775,6.525,16.5,16.5,0,0,0,3.629,8.1m22.755-19.786a18.218,18.218,0,0,1,.56,6.072,29.225,29.225,0,0,1-1.219,7.7,33.464,33.464,0,0,1-2.693,6.466q-1.6,2.878-1.04,2.1a17.007,17.007,0,0,0,6.2-2.084,15.662,15.662,0,0,0,5.408-4.245,9.768,9.768,0,0,0,2.048-4.908,8.363,8.363,0,0,0-.963-4.862,11.778,11.778,0,0,0-3.907-4.152,11.541,11.541,0,0,0-4.4-2.083" transform="translate(-47.709 -33.394)" fill="#fff"/><path d="M892.6,2703.846l-.256,23.43-1.828-.02.121-11.1-15.631-.171-.122,11.1-1.811-.02.256-23.431,1.811.02-.119,10.818,15.632.171.118-10.818Z" transform="translate(-17.651 -66.004)" fill="#fff"/><path d="M892.6,2703.846l-.256,23.43-1.828-.02.121-11.1-15.631-.171-.122,11.1-1.811-.02.256-23.431,1.811.02-.119,10.818,15.632.171.118-10.818Z" transform="translate(-17.651 -66.004)" fill="none" stroke="#fff" stroke-miterlimit="10" stroke-width="0.201"/><path d="M911.325,2704.051l-.031,2.818-1.661-.018.031-2.818Zm-.088,8-.169,15.431-1.661-.019.169-15.43Z" transform="translate(-27.878 -66.116)" fill="#fff"/><path d="M911.325,2704.051l-.031,2.818-1.661-.018.031-2.818Zm-.088,8-.169,15.431-1.661-.019.169-15.43Z" transform="translate(-27.878 -66.116)" fill="none" stroke="#fff" stroke-miterlimit="10" stroke-width="0.201"/><path d="M922.132,2715.215l-.03,2.717h.068a5.62,5.62,0,0,1,4.947-2.965q3.539.038,4.94,3.762,2.221-3.683,5.408-3.648a4.872,4.872,0,0,1,3.855,1.753,6.713,6.713,0,0,1,1.426,4.562l-.1,9.476-1.643-.017.1-8.756a6.5,6.5,0,0,0-1.014-3.944,3.467,3.467,0,0,0-2.953-1.467,3.824,3.824,0,0,0-2.492.827,10.351,10.351,0,0,0-2.21,2.727l-.115,10.516-1.66-.019.1-8.788a6.22,6.22,0,0,0-1.055-3.962,3.563,3.563,0,0,0-2.929-1.415q-2.683-.03-4.681,3.252l-.119,10.819-1.644-.019.169-15.43Z" transform="translate(-30.949 -69.193)" fill="#fff"/><path d="M922.132,2715.215l-.03,2.717h.068a5.62,5.62,0,0,1,4.947-2.965q3.539.038,4.94,3.762,2.221-3.683,5.408-3.648a4.872,4.872,0,0,1,3.855,1.753,6.713,6.713,0,0,1,1.426,4.562l-.1,9.476-1.643-.017.1-8.756a6.5,6.5,0,0,0-1.014-3.944,3.467,3.467,0,0,0-2.953-1.467,3.824,3.824,0,0,0-2.492.827,10.351,10.351,0,0,0-2.21,2.727l-.115,10.516-1.66-.019.1-8.788a6.22,6.22,0,0,0-1.055-3.962,3.563,3.563,0,0,0-2.929-1.415q-2.683-.03-4.681,3.252l-.119,10.819-1.644-.019.169-15.43Z" transform="translate(-30.949 -69.193)" fill="none" stroke="#fff" stroke-miterlimit="10" stroke-width="0.201"/><path d="M961.379,2715.645l-.03,2.717h.068a5.619,5.619,0,0,1,4.947-2.965q3.539.038,4.94,3.762,2.221-3.683,5.408-3.649a4.873,4.873,0,0,1,3.856,1.753,6.713,6.713,0,0,1,1.426,4.562l-.1,9.476-1.643-.017.1-8.756a6.512,6.512,0,0,0-1.014-3.945,3.474,3.474,0,0,0-2.953-1.467,3.833,3.833,0,0,0-2.492.829,10.325,10.325,0,0,0-2.21,2.727l-.115,10.516-1.66-.019.1-8.788a6.223,6.223,0,0,0-1.055-3.962A3.564,3.564,0,0,0,966.01,2717q-2.683-.03-4.681,3.253l-.119,10.819-1.644-.019.169-15.43Z" transform="translate(-41.997 -69.315)" fill="#fff"/><path d="M961.379,2715.645l-.03,2.717h.068a5.619,5.619,0,0,1,4.947-2.965q3.539.038,4.94,3.762,2.221-3.683,5.408-3.649a4.873,4.873,0,0,1,3.856,1.753,6.713,6.713,0,0,1,1.426,4.562l-.1,9.476-1.643-.017.1-8.756a6.512,6.512,0,0,0-1.014-3.945,3.474,3.474,0,0,0-2.953-1.467,3.833,3.833,0,0,0-2.492.829,10.325,10.325,0,0,0-2.21,2.727l-.115,10.516-1.66-.019.1-8.788a6.223,6.223,0,0,0-1.055-3.962A3.564,3.564,0,0,0,966.01,2717q-2.683-.03-4.681,3.253l-.119,10.819-1.644-.019.169-15.43Z" transform="translate(-41.997 -69.315)" fill="none" stroke="#fff" stroke-miterlimit="10" stroke-width="0.201"/><path d="M1010.933,2728.932l-.016,1.375a6.508,6.508,0,0,1-3.137,1.576.834.834,0,0,1-.785-.386,4.293,4.293,0,0,1-.3-1.538,7.831,7.831,0,0,1-4.851,1.859,4.141,4.141,0,0,1-2.939-1.173,3.663,3.663,0,0,1-1.178-2.781,4.471,4.471,0,0,1,2.375-3.942,14.035,14.035,0,0,1,6.676-1.595l.022-1.963q.035-3.153-3.387-3.19a7.9,7.9,0,0,0-4.735,1.91l.019-1.693a9.423,9.423,0,0,1,5-1.59,5.555,5.555,0,0,1,3.444,1.069,3.528,3.528,0,0,1,1.325,3.008l-.1,9.61q-.009.789.361.793a6.019,6.019,0,0,0,2.212-1.352m-4.223-.416.052-4.813a9.5,9.5,0,0,0-5.27,1.057,3.619,3.619,0,0,0-2.123,3.123,2.286,2.286,0,0,0,.853,1.821,3.253,3.253,0,0,0,2.171.762,6.468,6.468,0,0,0,4.316-1.949" transform="translate(-52.738 -69.428)" fill="#fff"/><path d="M1010.933,2728.932l-.016,1.375a6.508,6.508,0,0,1-3.137,1.576.834.834,0,0,1-.785-.386,4.293,4.293,0,0,1-.3-1.538,7.831,7.831,0,0,1-4.851,1.859,4.141,4.141,0,0,1-2.939-1.173,3.663,3.663,0,0,1-1.178-2.781,4.471,4.471,0,0,1,2.375-3.942,14.035,14.035,0,0,1,6.676-1.595l.022-1.963q.035-3.153-3.387-3.19a7.9,7.9,0,0,0-4.735,1.91l.019-1.693a9.423,9.423,0,0,1,5-1.59,5.555,5.555,0,0,1,3.444,1.069,3.528,3.528,0,0,1,1.325,3.008l-.1,9.61q-.009.789.361.793A6.019,6.019,0,0,0,1010.933,2728.932Zm-4.223-.416.052-4.813a9.5,9.5,0,0,0-5.27,1.057,3.619,3.619,0,0,0-2.123,3.123,2.286,2.286,0,0,0,.853,1.821,3.253,3.253,0,0,0,2.171.762A6.468,6.468,0,0,0,1006.71,2728.517Z" transform="translate(-52.738 -69.428)" fill="none" stroke="#fff" stroke-miterlimit="10" stroke-width="0.201"/><path d="M1023.6,2705.281l-.116,10.684h.067a5.831,5.831,0,0,1,5.114-2.93,5.43,5.43,0,0,1,4.158,1.723,6.507,6.507,0,0,1,1.51,4.629l-.1,9.443-1.644-.018.1-8.788q.058-5.334-4.134-5.38-3-.032-5.084,3.25l-.119,10.817-1.645-.018.257-23.43Z" transform="translate(-59.486 -66.462)" fill="#fff"/><path d="M1023.6,2705.281l-.116,10.684h.067a5.831,5.831,0,0,1,5.114-2.93,5.43,5.43,0,0,1,4.158,1.723,6.507,6.507,0,0,1,1.51,4.629l-.1,9.443-1.644-.018.1-8.788q.058-5.334-4.134-5.38-3-.032-5.084,3.25l-.119,10.817-1.645-.018.257-23.43Z" transform="translate(-59.486 -66.462)" fill="none" stroke="#fff" stroke-miterlimit="10" stroke-width="0.201"/></g></svg>