<svg xmlns="http://www.w3.org/2000/svg" width="145.58" height="145.575" viewBox="0 0 145.58 145.575"><g transform="translate(-29.628 1251.313)"><path d="M1016.365,2621.306a72.79,72.79,0,1,1,72.79,72.79,72.87,72.87,0,0,1-72.79-72.79m1.851,0a70.939,70.939,0,1,0,70.939-70.935,71.018,71.018,0,0,0-70.939,70.935" transform="translate(-986.737 -3799.834)" fill="#270089"/><path d="M1151.67,2621.3a62.515,62.515,0,1,0-62.515,62.52,62.513,62.513,0,0,0,62.515-62.52" transform="translate(-986.737 -3799.834)" fill="#270089"/><path d="M1058.115,2654.442l-.033.032.623.56a45.419,45.419,0,0,0,75.758-30.437h0c0-.036,0-.074.007-.109l.055-.757h-.007c.045-.74.075-1.514.075-2.415a45.1,45.1,0,0,0-7.99-25.747l-1.306.9a43.535,43.535,0,0,1,7.707,24.845c0,.906-.03,1.679-.078,2.415h-4.935c.048-.8.073-1.6.073-2.415a38.873,38.873,0,0,0-38.119-38.87v-.042h-.794a38.656,38.656,0,0,0-13.479,2.4,37.713,37.713,0,0,0-6.845,3.326,38.9,38.9,0,0,0-8.192,6.753l-3.489-3.49a43.781,43.781,0,0,1,64.561.52l1.176-1.067a45.427,45.427,0,1,0-64.77,63.594m-2.035-61.865,3.5,3.5a38.8,38.8,0,0,0,3.138,53.756l-3.484,3.486a43.715,43.715,0,0,1-3.156-60.744m32.279-8.575v4.992a32.329,32.329,0,0,0-31.57,32.323,30.267,30.267,0,0,0,.163,3.246l1.583-.037a31.95,31.95,0,0,1-.159-3.209,30.768,30.768,0,0,1,54.04-20.136l.6-.52-.6.52a30.721,30.721,0,0,1,7.513,20.136,30.127,30.127,0,0,1-.155,3.124,30.81,30.81,0,0,1-30.624,27.653c-.053,0-.106-.006-.158-.007V2630a18.716,18.716,0,0,1,4.319-11.975,18.094,18.094,0,0,0,8.229,2.148,13.522,13.522,0,0,0,3.658-.492c4.005-1.123,7.256-4.125,9.661-8.921l.18-.363-.183-.36c-.049-.09-4.779-8.978-14.692-6.186-8.921,2.514-8.163,11.039-7.874,12.939a20.274,20.274,0,0,0-4.838,12.263,15.434,15.434,0,0,0-1.517-2.526l.01-.046c.025-.1,2.2-10.512-7.807-13.332-9.887-2.787-14.641,6.095-14.691,6.186l-.184.36.181.361c2.405,4.8,5.656,7.8,9.661,8.922a13.553,13.553,0,0,0,3.654.491,18.067,18.067,0,0,0,7.916-1.984,13.687,13.687,0,0,1,2.728,8.163v16.375a30.659,30.659,0,0,1-27.557-21.273l-1.515.486a32.249,32.249,0,0,0,29.072,22.376v4.932a37.185,37.185,0,0,1-23-9.332h0l0,0a37.331,37.331,0,0,1,5.26-59.726,36.17,36.17,0,0,1,6.562-3.188,37.071,37.071,0,0,1,12.137-2.3m24.9,65.755a37.38,37.38,0,0,1-24.107,8.867c-.053,0-.106-.007-.158-.008v-4.94c.052,0,.1,0,.158,0a32.274,32.274,0,0,0,20.6-7.439Zm-28.689-24.885a15.343,15.343,0,0,0-10.983-4.632h-.746v1.589h.746a13.74,13.74,0,0,1,10.045,4.39c-1.892.9-5.944,2.4-10.11,1.224-3.448-.97-6.294-3.566-8.465-7.721a10.952,10.952,0,0,1,12.653-5.044c6.718,1.893,7.064,7.621,6.86,10.194m16.026-19.491a10.936,10.936,0,0,1,12.653,5.044c-2.173,4.16-5.025,6.758-8.476,7.725-4.373,1.225-8.593-.469-10.353-1.344a18.745,18.745,0,0,1,13.377-5.609v-1.588a20.3,20.3,0,0,0-14.072,5.67c-.145-2.693.414-8.079,6.871-9.9m-11.444,59.789c-.053,0-.106-.007-.158-.008v-4.957c.052,0,.1.007.158.007a39.012,39.012,0,0,0,33.817-19.658l-1.379-.787a37.2,37.2,0,0,1-7.138,8.935l-3.506-3.508a32.236,32.236,0,0,0,10.409-20.587,31.577,31.577,0,0,0,.164-3.29,32.3,32.3,0,0,0-7.9-21.175l0,0a32.321,32.321,0,0,0-23.674-11.179v-4.925a37.285,37.285,0,0,1,36.531,37.281c0,1.057-.048,2.1-.124,3.14h0a37.863,37.863,0,0,1-1.806,8.716l1.509.5a39.452,39.452,0,0,0,1.774-8.356h4.982a43.966,43.966,0,0,1-43.659,39.85m-28.758-10.76,3.535-3.537a38.759,38.759,0,0,0,23.476,9.26v4.958a43.694,43.694,0,0,1-27.011-10.681" transform="translate(-986.737 -3799.834)" fill="#fff"/></g></svg>