<svg xmlns="http://www.w3.org/2000/svg" width="145.579" height="145.577" viewBox="0 0 145.579 145.577"><g transform="translate(791 1251.314)"><path d="M195.74,2621.99a72.789,72.789,0,1,1,73.47,72.1,72.872,72.872,0,0,1-73.47-72.1m1.852-.017a70.938,70.938,0,1,0,70.27-71.6,71.018,71.018,0,0,0-70.27,71.6" transform="translate(-986.737 -3799.834)" fill="#270089"/><path d="M331.039,2620.718a62.514,62.514,0,1,0-61.925,63.1,62.513,62.513,0,0,0,61.925-63.1" transform="translate(-986.737 -3799.834)" fill="#270089"/><rect width="78.108" height="55.583" transform="matrix(1, -0.009, 0.009, 1, -762.249, -1203.852)" fill="none" stroke="#fff" stroke-miterlimit="10" stroke-width="1.013"/><path d="M302.594,2595.25l-78.106.732.22,23.506,4.325,4.245,69.536-.652,4.244-4.325Z" transform="translate(-986.737 -3799.834)" fill="none" stroke="#fff" stroke-miterlimit="10" stroke-width="1.013"/><rect width="9.407" height="12.095" transform="translate(-727.696 -1182.431) rotate(-0.538)" fill="none" stroke="#fff" stroke-miterlimit="10" stroke-width="1.013"/><path d="M280.087,2595.608l-32.88.309-.1-10.727a5.714,5.714,0,0,1,5.66-5.768l21.453-.2a5.714,5.714,0,0,1,5.766,5.66Z" transform="translate(-986.737 -3799.834)" fill="none" stroke="#fff" stroke-miterlimit="10" stroke-width="1.013"/><path d="M273.325,2595.524l-19.358.182-.075-7.936a1.429,1.429,0,0,1,1.415-1.442l16.5-.155a1.428,1.428,0,0,1,1.442,1.415Z" transform="translate(-986.737 -3799.834)" fill="none" stroke="#fff" stroke-miterlimit="10" stroke-width="1.013"/><path d="M316.719,2650.083a15.978,15.978,0,1,1-16.128-15.828,15.98,15.98,0,0,1,16.128,15.828" transform="translate(-986.737 -3799.834)" fill="#fff"/><path d="M291.52,2645.09a7.359,7.359,0,0,1,.219-1.857,4.617,4.617,0,0,1,.7-1.554,3.436,3.436,0,0,1,1.25-1.064,4.111,4.111,0,0,1,1.85-.4,4.266,4.266,0,0,1,1.9.355,3.282,3.282,0,0,1,1.24,1.012,4.26,4.26,0,0,1,.692,1.53,8.135,8.135,0,0,1,.227,1.879,7.265,7.265,0,0,1-.218,1.87,4.238,4.238,0,0,1-.706,1.5,3.4,3.4,0,0,1-1.237,1,4.251,4.251,0,0,1-1.834.377,3.623,3.623,0,0,1-3-1.272,5.193,5.193,0,0,1-1.085-3.366m13.651-5.191,2.349-.022-11.2,20.689-2.408.023Zm-11.163,4.7q.006.582.051,1.19a4.523,4.523,0,0,0,.2,1.077,1.875,1.875,0,0,0,.465.771,1.164,1.164,0,0,0,.862.3,1.337,1.337,0,0,0,.895-.285,1.657,1.657,0,0,0,.463-.711,3.074,3.074,0,0,0,.156-.956c.007-.349.007-.692,0-1.023,0-.35-.016-.706-.037-1.065a3.527,3.527,0,0,0-.174-.953,1.49,1.49,0,0,0-.449-.674,1.276,1.276,0,0,0-.86-.254,1.42,1.42,0,0,0-.9.257,1.6,1.6,0,0,0-.48.64,2.535,2.535,0,0,0-.185.847c-.017.3-.021.586-.019.843m7.879,11.021a7.228,7.228,0,0,1,.214-1.854,4.686,4.686,0,0,1,.706-1.558,3.421,3.421,0,0,1,1.25-1.061,4.089,4.089,0,0,1,1.85-.407,4.3,4.3,0,0,1,1.9.356,3.29,3.29,0,0,1,1.242,1.013,4.285,4.285,0,0,1,.69,1.529,8.214,8.214,0,0,1,.227,1.879,7.168,7.168,0,0,1-.219,1.87,4.12,4.12,0,0,1-.7,1.5,3.339,3.339,0,0,1-1.233.993,4.3,4.3,0,0,1-1.838.377,3.616,3.616,0,0,1-3-1.273,5.176,5.176,0,0,1-1.082-3.365m2.484-.493q0,.58.052,1.188a4.391,4.391,0,0,0,.206,1.078,1.872,1.872,0,0,0,.463.77,1.144,1.144,0,0,0,.86.3,1.337,1.337,0,0,0,.9-.283,1.636,1.636,0,0,0,.462-.71,3.028,3.028,0,0,0,.158-.956c.007-.352.009-.693.007-1.026,0-.349-.017-.7-.041-1.063a3.62,3.62,0,0,0-.174-.954,1.487,1.487,0,0,0-.449-.673,1.273,1.273,0,0,0-.86-.256,1.421,1.421,0,0,0-.9.259,1.55,1.55,0,0,0-.477.642,2.515,2.515,0,0,0-.188.843c-.014.3-.022.587-.019.845" transform="translate(-986.737 -3799.834)" fill="#270089"/></g></svg>