<svg xmlns="http://www.w3.org/2000/svg" width="145.58" height="145.577" viewBox="0 0 145.58 145.577"><g transform="translate(233.734 1251.313)"><path d="M753,2621.308a72.79,72.79,0,1,1,72.79,72.79,72.871,72.871,0,0,1-72.79-72.79m1.851,0a70.939,70.939,0,1,0,70.939-70.938,71.019,71.019,0,0,0-70.939,70.938" transform="translate(-986.737 -3799.834)" fill="#270089"/><path d="M888.308,2621.3a62.514,62.514,0,1,0-62.515,62.522,62.514,62.514,0,0,0,62.515-62.522" transform="translate(-986.737 -3799.834)" fill="#270089"/><path d="M798.957,2584.108a3.182,3.182,0,0,0,3.165,3.253h.059a2.843,2.843,0,0,0,.976-.177,2.626,2.626,0,0,0-.207,1.065,3.124,3.124,0,0,0,.887,2.277,3.183,3.183,0,0,0,4.525.119h.03a3.251,3.251,0,0,0,.088-4.556,3.339,3.339,0,0,0-3.282-.857,2.878,2.878,0,0,0,.206-1.095,3.19,3.19,0,0,0-.886-2.188,3.258,3.258,0,0,0-4.584-.118,3.205,3.205,0,0,0-.977,2.277m5.62,4.17a1.564,1.564,0,0,1,.473-1.124,1.6,1.6,0,1,1-.029,2.248,1.47,1.47,0,0,1-.444-1.124m-3.993-4.141a1.564,1.564,0,0,1,.474-1.123,1.632,1.632,0,0,1,1.123-.444,1.527,1.527,0,0,1,1.154.5,1.58,1.58,0,0,1-.06,2.218,1.487,1.487,0,0,1-1.005.443h-.119a1.56,1.56,0,0,1-1.124-.473,1.513,1.513,0,0,1-.443-1.124" transform="translate(-986.737 -3799.834)" fill="#fff"/><path d="M792.687,2588.81a3.224,3.224,0,0,0,2.218,5.531.661.661,0,1,1,.8.947,3.209,3.209,0,0,0,.887,2.217,3.149,3.149,0,0,0,2.307.977,3.206,3.206,0,0,0,2.218-.888,3.239,3.239,0,0,0,1.006-2.248,3.233,3.233,0,0,0-4.2-3.135,3.2,3.2,0,0,0-5.235-3.4m5.116,5.294a1.494,1.494,0,0,1,1.1-.414,1.606,1.606,0,0,1,1.153.474,1.586,1.586,0,0,1,.444,1.124,1.484,1.484,0,0,1-.5,1.124,1.589,1.589,0,0,1-2.247-.031,1.625,1.625,0,0,1,.058-2.277m-2.9-4.584a1.544,1.544,0,0,1,1.153.5,1.589,1.589,0,0,1-.029,2.248,1.6,1.6,0,1,1-1.124-2.751" transform="translate(-986.737 -3799.834)" fill="#fff"/><path d="M834.675,2631.008a1.547,1.547,0,0,1,1.264-.622,3.245,3.245,0,0,1,2.067,1.324.577.577,0,0,1-.13.811.561.561,0,0,1-.81-.115c-.253-.33-.794-.844-1.152-.852-.049,0-.177,0-.329.2-.083.1-.149.176-.232.256-.666.8-1.165,1.356,3.366,6.077,3.274,3.413,2.761,5.467,2.372,6.189a1.886,1.886,0,0,1-.4.544,1.716,1.716,0,0,1-1.44.489,1.685,1.685,0,0,1-1.366-1.457.587.587,0,0,1,1.157-.2c.029.179.12.457.379.495a.625.625,0,0,0,.626-.411c.423-.8.067-2.482-2.174-4.835-4.768-4.97-4.7-6.137-3.4-7.654a1.538,1.538,0,0,0,.2-.24" transform="translate(-986.737 -3799.834)" fill="#fff"/><path d="M785.53,2661.006l1.093,1.361.326-1.716c.947-4.88,3.046-6.625,6-9.049.741-.622,1.539-1.274,2.4-2.041,3.311-3.018,2.188-7.1.827-9.317,1.48-.71,3.786-2.4,7.395-5.974a160.349,160.349,0,0,0,10.735-12.068,14.065,14.065,0,0,0,.947,2.692c2.278,5.057,5.235,6,7.157,6.654,1.331.414,2.1.681,2.278,1.686l.3,1.42,1.064-.977a3.587,3.587,0,0,1,2.692-1.153c1.921.119,3.9,2.248,5.678,6.152,2.307,5.087,2.07,6.773,1.479,7.3a1.868,1.868,0,0,1-1.686.06l-2.662-.857,1.775,2.157a7.666,7.666,0,0,0,2.543,1.8v.029c0,.474,1.775,10.145,10.766,12.009a12.346,12.346,0,0,0,2.247.236c4.259,0,7.394-2.573,9.789-4.554a13.3,13.3,0,0,1,2.573-1.834l.415.325,1.8-1.686-.3-.443a13.038,13.038,0,0,1,2.041-2.633c2.278-2.513,5.678-6.329,4.791-11.831-1.478-8.754-10.44-11.091-11.593-11.356a8.092,8.092,0,0,0-1.685-2.514l-2.159-2.012.828,2.839a1.906,1.906,0,0,1-.148,1.687c-.592.561-2.279.709-7.217-1.8-3.845-1.923-5.885-3.964-5.915-5.887a3.549,3.549,0,0,1,1.242-2.662l1.064-1.034-1.449-.326c-.975-.237-1.212-1.005-1.567-2.307-.562-2.012-1.39-4.969-6.329-7.482a11.76,11.76,0,0,0-7.837-1.331c5.117-7.72,9.877-16.061,9.877-19.846a2.049,2.049,0,0,0-.651-1.716c-.621-.473-2.247-1.716-10.114,6.093a153.43,153.43,0,0,0-11.476,13.014l-15.024-15.735-1.508-1.568.117-2.75-5.382-.118-.119,5.412,2.929.059,16.769,17.538c-.827,1.036-1.657,2.1-2.454,3.166-6.122,8.133-16.031,22.773-17.273,29.31l-.089-.059-.414.118c-6,1.952-9.67,5-10.884,9.08-2.04,6.921,3.727,14.137,3.994,14.433m-2.426-13.961c1.006-3.46,4.2-6.092,9.434-7.867l.356.267a1.731,1.731,0,0,0,.562.917,1.461,1.461,0,0,0,1.005.385h.089c.562.8,2.928,4.7-.3,7.629-.828.741-1.6,1.362-2.337,1.983-2.719,2.218-4.938,4.052-6.151,8.192-1.479-2.306-3.993-7.1-2.662-11.506m24.9-19.9-5.946-4.466q3.727-5.9,9.434-13.576c.77-1.035,1.538-2.011,2.278-2.986l.976-1.243a2.258,2.258,0,0,0,.237-.326c.325-.414.68-.828,1.005-1.242,10.854-13.635,18.249-19.55,19.521-18.987.827.976-2.249,8.578-10.737,21.088-1.035,1.508-2.159,3.135-3.4,4.82-.917,1.3-1.923,2.662-2.958,4.053-.917,1.212-1.8,2.4-2.69,3.519-.593.769-1.184,1.508-1.745,2.218-2.13,2.662-4.142,5.029-5.974,7.128m-1.1,1.213c-6.033,6.714-10.292,10.145-11.919,10.647a.726.726,0,0,1-.591.06,1.06,1.06,0,0,1-.148-.622c.059-1.745,2.189-6.743,6.921-14.374Zm6.951-24.992c-.058.089-.148.207-.237.326l-16.74-17.48a1.387,1.387,0,0,0-.976-.415l-1.3-.029.03-2.159,2.158.029-.029,1.3a1.374,1.374,0,0,0,.386,1Zm1.775,17.154c1.359-1.685,2.72-3.461,4.081-5.265,1.8-2.4,3.963-5.382,6.092-8.548,2.012-.886,4.882-1.212,8.518.652,4.288,2.188,4.969,4.524,5.5,6.418a4.716,4.716,0,0,0,1.625,2.986,4.814,4.814,0,0,0-.974,2.988c.028,2.6,2.336,5.057,6.831,7.3a21.245,21.245,0,0,0,5.619,2.189h.089a.3.3,0,0,0,.055.014.585.585,0,0,0-.654.433.592.592,0,0,0,.456.707c.161.035.435.139.479.4a.66.66,0,0,1-.452.608c-.819.389-2.483-.035-4.725-2.371-4.77-4.971-5.956-4.948-7.508-3.729a2.946,2.946,0,0,0-.247.206,1.51,1.51,0,0,0-.691,1.221,3.293,3.293,0,0,0,1.238,2.136.594.594,0,0,0,.83-.1.573.573,0,0,0-.1-.814c-.318-.284-.795-.845-.788-1.2,0-.049,0-.162.2-.3a3.155,3.155,0,0,1,.281-.22c.808-.65,1.4-1.109,5.933,3.613,3.26,3.413,5.33,2.97,6.07,2.627a1.687,1.687,0,0,0,.558-.379,1.711,1.711,0,0,0,.549-1.418,1.594,1.594,0,0,0-1.157-1.341.03.03,0,0,1,.021,0,3.321,3.321,0,0,0,2.988-.74,2.772,2.772,0,0,0,.473-.68,1,1,0,0,1,.118.266,1.394,1.394,0,0,0,1.007.8c.354.088,9.078,1.951,10.409,10.055.8,4.732-2.188,8.074-4.377,10.5a12.107,12.107,0,0,0-2.365,3.164,1.282,1.282,0,0,0-.119.562l-.118.118a1.23,1.23,0,0,0-.149-.03,1.334,1.334,0,0,0-.59.149,15.489,15.489,0,0,0-3.017,2.13c-2.661,2.189-5.975,4.909-10.677,3.962-8.1-1.685-9.583-10.735-9.583-10.825a1.464,1.464,0,0,0-.8-1.064.784.784,0,0,1-.206-.119,1.694,1.694,0,0,0,.591-.384c1.539-1.361,1.213-4.111-1.064-9.2-2.071-4.554-4.436-6.95-7.039-7.1a4.959,4.959,0,0,0-3.017.858,4.909,4.909,0,0,0-2.9-1.745c-1.893-.621-4.229-1.39-6.211-5.767a13,13,0,0,1-1.094-3.727" transform="translate(-986.737 -3799.834)" fill="#fff"/></g></svg>