<svg xmlns="http://www.w3.org/2000/svg" width="145.579" height="145.577" viewBox="0 0 145.579 145.577"><g transform="translate(-337.066 1251.313)"><path d="M1323.8,2621.308a72.789,72.789,0,1,1,72.789,72.79,72.871,72.871,0,0,1-72.789-72.79m1.851,0a70.938,70.938,0,1,0,70.938-70.938,71.018,71.018,0,0,0-70.938,70.938" transform="translate(-986.737 -3799.834)" fill="#270089"/><path d="M1459.107,2621.3a62.514,62.514,0,1,0-62.514,62.522,62.513,62.513,0,0,0,62.514-62.522" transform="translate(-986.737 -3799.834)" fill="#270089"/><path d="M1387.918,2634.777c-1.393,1.394-1.667,3.688-.771,6.462a3.774,3.774,0,0,1,0,5.7c-.9,2.772-.622,5.066.771,6.461a4.8,4.8,0,0,0,3.5,1.29,10.306,10.306,0,0,1,11.612,0,4.8,4.8,0,0,0,3.5-1.29c1.937-1.939,1.581-5.548-.526-9.316a16.154,16.154,0,0,0,1.3-2.843c.9-2.774.622-5.068-.77-6.462s-3.687-1.668-6.461-.771a16.232,16.232,0,0,0-2.849,1.3,16.2,16.2,0,0,0-2.849-1.3c-2.773-.9-5.068-.62-6.461.771m17.311,8a23.966,23.966,0,0,0-6.688-6.694,13.963,13.963,0,0,1,1.944-.811,8.419,8.419,0,0,1,2.565-.456,3.481,3.481,0,0,1,2.547.9c1.371,1.371,1.116,4.1-.368,7.06m-3.948-2.74a7.639,7.639,0,0,1-4.053,11.3,21.932,21.932,0,0,1-4.053-3.192h0a4.166,4.166,0,0,1,0-8.106h0a22.039,22.039,0,0,1,4.058-3.207,22.058,22.058,0,0,1,4.048,3.207m-2.736,12.058a24.044,24.044,0,0,0,6.686-6.688c1.482,2.958,1.736,5.683.367,7.053s-4.095,1.118-7.053-.365m-9.324-6.693a24.094,24.094,0,0,0,6.69,6.693c-2.959,1.483-5.687,1.738-7.054.365-1.022-1.021-1.183-2.838-.446-5.113a14.042,14.042,0,0,1,.81-1.945m-.364-9.685a3.486,3.486,0,0,1,2.544-.9,10.528,10.528,0,0,1,4.5,1.272,23.925,23.925,0,0,0-3.668,3.007h0a23.852,23.852,0,0,0-3.016,3.679,13.918,13.918,0,0,1-.81-1.944c-.737-2.275-.576-4.091.446-5.116" transform="translate(-986.737 -3799.834)" fill="#fff"/><path d="M1387.45,2607.24l.006,6.219h-17.172l-8.392,8.393a5.471,5.471,0,0,0-2.839-.81,5.538,5.538,0,1,0,3.906,1.62l7.875-7.876h16.623l.007,9.221-21.433,24.555a7.844,7.844,0,0,0,5.91,13.008h50.572a7.846,7.846,0,0,0,5.762-13.173l-22.554-24.4.023-1.06v-8.149h16.606l7.875,7.877a5.812,5.812,0,1,0,1.068-.812l-8.393-8.392h-17.156v-6.219h22.925a5.531,5.531,0,1,0,0-1.327h-22.925v-6.219H1422.9l8.393-8.393a5.4,5.4,0,1,0-1.066-.81l-7.877,7.876h-16.606v-3.955h3.02a4.908,4.908,0,0,0,0-9.816h-24.342a4.908,4.908,0,0,0,0,9.816h3.019l0,3.955h-16.61l-7.875-7.877a5.807,5.807,0,1,0-1.068.812l8.393,8.392h17.161l0,6.219h-22.933a5.529,5.529,0,1,0,0,1.327Zm-24.194-.664a4.2,4.2,0,1,1-4.2-4.2,4.209,4.209,0,0,1,4.2,4.2m-4.2-15.793a4.2,4.2,0,1,1,4.2-4.2,4.209,4.209,0,0,1-4.2,4.2m75.08,0a4.2,4.2,0,1,1,4.2-4.2,4.208,4.208,0,0,1-4.2,4.2m-4.2,15.793a4.2,4.2,0,1,1,4.2,4.2,4.208,4.208,0,0,1-4.2-4.2m4.2,15.793a4.2,4.2,0,1,1-4.2,4.2,4.208,4.208,0,0,1,4.2-4.2m-75.08,0a4.2,4.2,0,1,1-4.2,4.2,4.209,4.209,0,0,1,4.2-4.2m29.75,2.122-.035-1.584v-29.822h-4.346a3.58,3.58,0,0,1,0-7.161h24.342a3.58,3.58,0,0,1,0,7.161h-4.347l-.006,5.282h-5.177v1.327h5.176l-.006,6.219h-5.17v1.327h5.168l-.007,6.219h-5.161v1.327h5.159l-.011,9.717,22.917,24.8a6.516,6.516,0,0,1-4.786,10.944h-50.572a6.517,6.517,0,0,1-4.91-10.808Z" transform="translate(-986.737 -3799.834)" fill="#fff"/></g></svg>