<svg xmlns="http://www.w3.org/2000/svg" width="145.579" height="145.577" viewBox="0 0 145.579 145.577"><g transform="translate(-609.815 1251.313)"><path d="M1596.552,2621.308a72.789,72.789,0,1,1,72.789,72.79,72.87,72.87,0,0,1-72.789-72.79m1.851,0a70.939,70.939,0,1,0,70.938-70.938,71.019,71.019,0,0,0-70.938,70.938" transform="translate(-986.737 -3799.834)" fill="#270089"/><path d="M1731.856,2621.3a62.514,62.514,0,1,0-62.514,62.522,62.513,62.513,0,0,0,62.514-62.522" transform="translate(-986.737 -3799.834)" fill="#270089"/><path d="M1680.282,2632.4l-6.577,17.33h3.859l1.36-3.857h6.479l1.312,3.857h3.956l-6.481-17.33Zm-.363,10.631,2.257-6.358h.049l2.184,6.358Z" transform="translate(-986.737 -3799.834)" fill="#fff"/><path d="M1649.449,2609.834a9.513,9.513,0,0,0,2.348-.264,4.077,4.077,0,0,0,1.757-.91,4.172,4.172,0,0,0,1.1-1.7,8.1,8.1,0,0,0,.409-2.675,4,4,0,0,0,.511.326,2.679,2.679,0,0,0,.644.235,6.424,6.424,0,0,0,.9.144c.35.033.768.05,1.257.05h10.7v-3.653a4.866,4.866,0,0,0-1.183-3.5,4.274,4.274,0,0,0-3.229-1.237,5.706,5.706,0,0,0-2.387.5,7.122,7.122,0,0,0-1.981,1.339,9.154,9.154,0,0,0-1.53,1.919,11.772,11.772,0,0,0-1.063,2.266,3.99,3.99,0,0,1-2.02-.366,1.156,1.156,0,0,1-.574-1.023v-3.471h-2.631v6.9a2.562,2.562,0,0,1-.726,2.094,3.583,3.583,0,0,1-2.256.581q-2.961,0-2.961-2.817v-2.819h-2.614v2.8q0,5.286,5.533,5.286m11.547-8.421a5.275,5.275,0,0,1,.917-1.062,4.555,4.555,0,0,1,1.134-.736,3.2,3.2,0,0,1,1.306-.273,1.822,1.822,0,0,1,1.625.673,2.971,2.971,0,0,1,.458,1.714v.959h-6.084a5.959,5.959,0,0,1,.644-1.275" transform="translate(-986.737 -3799.834)" fill="#fff"/><path d="M1664.6,2594.828a1.465,1.465,0,1,0-1.021-.429,1.389,1.389,0,0,0,1.021.429" transform="translate(-986.737 -3799.834)" fill="#fff"/><path d="M1685.219,2585.038h-57.45V2618.2h6.582l6.778,16.7,7.816-16.7h36.274Zm-1.39,31.775h-35.77l-6.84,14.621-5.932-14.621h-6.127v-30.386h54.669Z" transform="translate(-986.737 -3799.834)" fill="#fff"/><path d="M1704.332,2624.417l-6.781-16.7-7.813,16.7h-36.277v33.165h57.453v-33.165Zm5.191,31.774h-54.671v-30.385h35.772l6.838-14.618,5.934,14.618h6.127Z" transform="translate(-986.737 -3799.834)" fill="#fff"/></g></svg>