<svg xmlns="http://www.w3.org/2000/svg" width="145.579" height="145.577" viewBox="0 0 145.579 145.577"><g transform="translate(505.221 1251.313)"><path d="M481.516,2621.308a72.789,72.789,0,1,1,72.79,72.79,72.871,72.871,0,0,1-72.79-72.79m1.851,0a70.939,70.939,0,1,0,70.939-70.938,71.019,71.019,0,0,0-70.939,70.938" transform="translate(-986.737 -3799.834)" fill="#270089"/><path d="M616.82,2621.3a62.514,62.514,0,1,0-62.514,62.522A62.513,62.513,0,0,0,616.82,2621.3" transform="translate(-986.737 -3799.834)" fill="#270089"/><path d="M520.133,2642.26v23.8H588.2v-23.8H566.063V2631.2h-2.92v-5.659H560.9l-1.207-2.723a20.183,20.183,0,0,1,.185-16.78l4.691-9.985a14.764,14.764,0,1,0-20.819,0l4.693,9.987a20.19,20.19,0,0,1,.184,16.78l-1.208,2.723h-2.239v5.659h-2.918v11.065Zm40.331-58.157-2.4,7.407H550.27l-2.406-7.407,6.3-4.578Zm.138,12.828a12.643,12.643,0,0,1-12.877,0l2.4-3.758h8.085Zm-19.538-11.34a12.991,12.991,0,0,1,.345-2.884l4.811,1.726,2.534,7.792-2.424,3.8a13.048,13.048,0,0,1-5.266-10.436m12.269-13.014v5.5l-6.578,4.779-4.851-1.74a13.056,13.056,0,0,1,11.429-8.537m13.092,8.537-4.852,1.74L555,2578.075v-5.5a13.058,13.058,0,0,1,11.429,8.537m.839,4.477A13.049,13.049,0,0,1,562,2596.027l-2.424-3.8,2.532-7.792,4.813-1.726a12.93,12.93,0,0,1,.344,2.884m-8.18,39.945h-9.841l.908-2.048a21.857,21.857,0,0,0-.2-18.165l-3.343-7.114a14.365,14.365,0,0,0,15.108,0l-3.342,7.113a21.857,21.857,0,0,0-.2,18.165Zm2.4,5.659H546.847v-4H561.48Zm4.583,12.728h20.47v20.471h-20.47Zm-22.134-1.663v-9.4H564.4v31.536h-20.47Zm-22.133,1.663h20.471v20.471H521.8Z" transform="translate(-986.737 -3799.834)" fill="#fff"/></g></svg>